<?xml version="1.0" encoding="utf-8"?>
<!-- Generator: Adobe Illustrator 12.0.0, SVG Export Plug-In . SVG Version: 6.00 Build 51448)  -->
<!DOCTYPE svg PUBLIC "-//W3C//DTD SVG 1.1//EN" "http://www.w3.org/Graphics/SVG/1.1/DTD/svg11.dtd" [
	<!ENTITY ns_svg "http://www.w3.org/2000/svg">
	<!ENTITY ns_xlink "http://www.w3.org/1999/xlink">
]>
<svg  version="1.1" id="レイヤー_1" xmlns="&ns_svg;" xmlns:xlink="&ns_xlink;" width="750" height="500" viewBox="0 0 750 500"
	 overflow="visible" enable-background="new 0 0 750 500" xml:space="preserve">
<path fill="#F5F5F5" d="M572.292,129.453c0.976-7.146-9.096-13.017-16.688-13.631c-3.599-0.289-7.357,0.25-10.716-0.932
	c-7.406-2.577-10.37-12.153-17.61-15.221c-5.369-2.283-11.652-0.25-16.89,2.38c-5.236,2.636-10.421,5.974-16.29,6.346
	c-5.1,0.319-10.637-1.57-15.089,0.923c-3.327,1.851-5.07,5.679-8.123,7.952c-3.058,2.263-6.905,2.685-10.626,2.886
	c-3.721,0.201-7.569,0.24-10.945,1.776c-3.378,1.542-6.194,5.14-5.479,8.796L572.292,129.453z"/>
<path fill="#EBEBEB" d="M444.269,404.574c2.832,0.068,5.659,0.521,8.373,1.335l5.458-5.66l11.117,6.706l-2.493,7.46
	c1.968,2.042,3.656,4.344,5.016,6.832l7.859-0.146l3.086,12.633l-7.014,3.52c-0.073,2.833-0.524,5.659-1.34,8.374l5.659,5.458
	l-6.704,11.117l-7.466-2.493c-2.041,1.973-4.344,3.661-6.837,5.016l0.152,7.864l-12.64,3.092l-3.505-7.014
	c-2.847-0.069-5.659-0.526-8.373-1.35l-5.458,5.663l-11.123-6.704l2.495-7.461c-1.969-2.042-3.657-4.344-5.018-6.837l-7.858,0.152
	l-3.096-12.635l7.028-3.52c0.068-2.836,0.521-5.659,1.335-8.373l-5.659-5.458l6.705-11.117l7.449,2.493
	c2.038-1.974,4.34-3.661,6.834-5.017l-0.148-7.853l12.645-3.098l3.51,7.028L444.269,404.574z M440.94,422.916
	c-7.49,1.831-12.074,9.38-10.243,16.87c1.83,7.489,9.379,12.074,16.864,10.243c7.49-1.831,12.074-9.38,10.243-16.869
	c0,0,0-0.011,0-0.02C455.955,425.675,448.415,421.101,440.94,422.916z"/>
<path fill="#EBEBEB" d="M440.94,422.916c1.094-0.368,2.253-0.55,3.406-0.53c3.205-0.049,6.341,1.016,8.845,3.023
	c1.733,1.38,3.117,3.147,4.02,5.158c1.07,2.323,1.492,4.895,1.237,7.437c-0.127,1.39-0.472,2.749-1.021,4.025
	c-0.544,1.335-1.291,2.571-2.223,3.666c-4.011,4.815-10.695,6.454-16.478,4.021c-2.62-1.115-4.854-2.976-6.421-5.354
	c-1.407-2.131-2.223-4.604-2.346-7.157c-0.26-5.532,2.725-10.705,7.653-13.228c1.024-0.555,2.129-0.929,3.287-1.1
	c-1.064,0.393-2.11,0.834-3.137,1.34c-2.714,1.487-4.849,3.849-6.07,6.704c-0.835,1.949-1.208,4.061-1.065,6.18
	c0.147,2.436,0.942,4.776,2.302,6.799c1.507,2.219,3.627,3.951,6.111,4.982c5.457,2.271,11.76,0.726,15.56-3.819
	c0.883-1.035,1.609-2.208,2.11-3.465c0.524-1.198,0.854-2.475,0.996-3.77c0.511-4.595-1.341-9.13-4.909-12.065
	c-2.399-1.979-5.384-3.098-8.49-3.166C443.179,422.637,442.055,422.749,440.94,422.916z"/>
<path fill="#EBEBEB" d="M228.614,481.824c0.952-6.848-8.717-12.477-15.977-13.065c-3.456-0.275-7.053,0.25-10.332-0.889
	c-7.107-2.479-9.94-11.657-16.879-14.582c-5.183-2.186-11.147-0.241-16.173,2.292c-5.026,2.532-9.993,5.708-15.598,6.071
	c-4.898,0.31-10.185-1.497-14.456,0.883c-3.19,1.768-4.859,5.439-7.794,7.608c-2.935,2.174-6.621,2.553-10.17,2.754
	c-3.558,0.201-7.259,0.23-10.494,1.703c-3.239,1.467-5.919,4.912-5.247,8.423L228.614,481.824z"/>
<path fill="#F5F5F5" d="M273.409,125.163c0.972-7.161-9.1-13.032-16.688-13.64c-3.598-0.285-7.358,0.26-10.784-0.928
	c-7.412-2.582-10.376-12.163-17.61-15.23c-5.36-2.277-11.653-0.25-16.89,2.385c-5.237,2.641-10.435,5.969-16.286,6.342
	c-5.104,0.334-10.646-1.556-15.107,0.922c-3.328,1.871-5.046,5.704-8.124,7.952c-3.073,2.252-6.906,2.685-10.636,2.886
	c-3.725,0.201-7.559,0.24-10.946,1.801c-3.386,1.556-6.189,5.115-5.478,8.776L273.409,125.163z"/>
<g opacity="0.2">
	<path fill="#FFFFFF" d="M-198.665,341.488c0.795-1.398,1.812-2.655,3.009-3.721c0.8-0.711,1.698-1.306,2.679-1.747
		c0.697-0.295,1.129-0.354,1.208-0.211c0.083,0.128-1.084,1.267-2.685,3.176c-4.162,4.863-5.075,11.721-2.341,17.498
		c0.996,2.243,1.973,3.5,1.698,3.76c-0.27,0.255-0.52,0-1.114-0.521c-0.795-0.682-1.488-1.487-2.052-2.385
		c-0.884-1.325-1.537-2.803-1.939-4.35c-0.495-1.924-0.623-3.932-0.373-5.899"/>
</g>
<path fill="#FF725E" d="M261.193,290.028c-14.746-13.649-40.882-12.064-53.85,3.318c-5.104,6.062-8.585,13.993-15.599,17.66
	c-10.715,5.64-23.805-1.478-35.919-0.442c-14.2,1.208-25.862,15.634-24.125,29.765c0.795,6.385,3.819,13.179,0.815,18.858
	c-3.819,7.259-14.877,7.549-19.521,14.283c-4.192,6.105-0.928,15.087,5.178,19.299c6.091,4.216,13.95,4.736,21.352,4.408
	c7.396-0.334,14.896-1.341,22.111,0.269c7.952,1.797,14.75,6.705,22.377,9.699c18.185,7.289,39.482,3.229,56.293-6.783
	c16.806-10.013,29.882-25.321,41.254-41.274"/>
<g opacity="0.8">
	<path fill="#FFFFFF" d="M261.193,290.028c-14.746-13.649-40.882-12.064-53.85,3.318c-5.104,6.062-8.585,13.993-15.599,17.66
		c-10.715,5.64-23.805-1.478-35.919-0.442c-14.2,1.208-25.862,15.634-24.125,29.765c0.795,6.385,3.819,13.179,0.815,18.858
		c-3.819,7.259-14.877,7.549-19.521,14.283c-4.192,6.105-0.928,15.087,5.178,19.299c6.091,4.216,13.95,4.736,21.352,4.408
		c7.396-0.334,14.896-1.341,22.111,0.269c7.952,1.797,14.75,6.705,22.377,9.699c18.185,7.289,39.482,3.229,56.293-6.783
		c16.806-10.013,29.882-25.321,41.254-41.274"/>
</g>
<path fill="#FF725E" d="M257.615,308.626c-12.06-11.76-34.294-10.116-44.43,3.293c-6.18,8.197-9.729,20.709-19.903,22.078
	c-6.887,0.942-13.4-4.241-20.355-3.71c-9.247,0.691-14.838,11.97-12.467,20.929c2.375,8.958,10.253,15.402,18.529,19.613
	c28.64,14.533,66.807,6.843,87.594-17.655"/>
<polyline fill="#FFBE9D" points="530.664,338.581 515.153,316.607 535.332,302.299 549.453,331.003 531.592,338.4 "/>
<path fill="#FF725E" d="M548.608,327.072l10.976,19.79c0,0,23.805-4.502,26.186-1.046l-37.602,22.657l-18.367-30.143
	L548.608,327.072z"/>
<g opacity="0.6">
	<path fill="#FFFFFF" d="M546.96,352.241c-0.614,0.683-0.614,1.719,0,2.4c0.662,0.623,1.697,0.623,2.37,0
		c0.658-0.722,0.658-1.826,0-2.542c-0.751-0.59-1.835-0.472-2.459,0.255"/>
</g>
<g opacity="0.6">
	<path fill="#FFFFFF" d="M548.168,368.474l-1.729-3.112l36.709-20.546c0,0,2.11-0.285,2.686,1.001L548.168,368.474z"/>
</g>
<path fill="#263238" d="M560.079,346.303c0.099,0.191-0.765,0.834-1.34,1.958c-0.569,1.124-0.569,2.199-0.771,2.243
	c-0.201,0.039-0.594-1.208,0.108-2.567C558.769,346.592,560.016,346.121,560.079,346.303z"/>
<path fill="#263238" d="M565.003,345.566c0.151,0.152-0.452,0.938-0.624,2.091c-0.171,1.158,0.163,2.091,0,2.185
	c-0.161,0.087-0.922-0.859-0.711-2.292C563.878,346.11,564.896,345.414,565.003,345.566z"/>
<path fill="#263238" d="M570.087,348.942c-0.146,0.133-0.952-0.633-1.084-1.909c-0.128-1.275,0.485-2.209,0.644-2.101
	c0.161,0.113,0,0.967,0.093,2.022C569.837,348.011,570.25,348.815,570.087,348.942z"/>
<path fill="#263238" d="M557.08,342.066c0,0.211-0.981,0.477-1.968,1.168c-0.986,0.692-1.609,1.507-1.802,1.409
	c-0.19-0.113,0.192-1.228,1.34-2.033C555.805,341.807,557.08,341.88,557.08,342.066z"/>
<path fill="#263238" d="M554.788,338.12c0,0.078-0.622,0.633-1.89,1.123c-1.192,0.472-2.479,0.692-3.77,0.654
	c-0.279,0.019-0.559-0.011-0.834-0.089c-0.412-0.112-0.692-0.496-0.662-0.928c0.019-0.372,0.23-0.712,0.555-0.903
	c0.23-0.152,0.49-0.25,0.766-0.323c0.432-0.138,0.883-0.241,1.334-0.31c0.814-0.093,1.63-0.06,2.436,0.098
	c1.335,0.285,2.076,0.796,2.036,0.863c-0.039,0.085-0.824-0.21-2.12-0.348c-0.75-0.073-1.507-0.054-2.253,0.068
	c-0.452,0.06-0.903,0.172-1.335,0.324c-0.462,0.138-0.805,0.339-0.805,0.579c0,0.246,0,0.123,0.181,0.191
	c0.212,0.021,0.412,0.021,0.624,0c0.451,0,0.903,0,1.335,0c0.767-0.068,1.512-0.201,2.253-0.402
	C553.321,338.458,554.058,338.268,554.788,338.12z"/>
<path fill="#263238" d="M554.699,338.532c0,0.06-0.804-0.383-1.6-1.53c-0.451-0.673-0.779-1.429-0.972-2.21
	c-0.123-0.476-0.19-0.956-0.211-1.438c-0.094-0.633,0.147-1.256,0.634-1.678c0.328-0.212,0.76-0.212,1.095,0
	c0.23,0.162,0.441,0.349,0.613,0.584c0.318,0.378,0.574,0.8,0.766,1.257c0.318,0.771,0.441,1.604,0.358,2.438
	c-0.148,1.341-0.781,2.092-0.834,2.042c0.142-0.643,0.239-1.296,0.313-1.948c0-0.736-0.163-1.468-0.462-2.135
	c-0.182-0.389-0.421-0.742-0.696-1.066c-0.29-0.357-0.644-0.588-0.762-0.451c-0.245,0.275-0.343,0.644-0.284,1.006
	c0,0.452,0.039,0.895,0.152,1.336c0.151,0.736,0.412,1.448,0.766,2.101C554.189,337.874,554.788,338.429,554.699,338.532z"/>
<polyline fill="#263238" points="473.237,260.455 521.407,336.157 547.734,318.256 503.374,227.04 "/>
<path fill="#455A64" d="M477.129,243.846c0.201,0.083-1.246,3.156-1.934,7.23c-0.682,4.059-0.402,7.436-0.623,7.471
	c-0.981-5.061-0.069-10.308,2.547-14.75v0.049H477.129z"/>
<path fill="#455A64" d="M472.191,244.067c0.201,0,0,3.328,0.555,7.343c0.55,4.01,1.546,7.156,1.335,7.225
	c-2.091-4.555-2.744-9.63-1.899-14.568H472.191z"/>
<path fill="#263238" d="M285.381,260.235l-33.042-10.205c-39.856,50.753-37.191,106.525,26.971,139.533l35.634-39.914
	L285.381,260.235z"/>
<path fill="#E0E0E0" d="M288.615,252.141c-21.149,12.346-31.663,38.33-29.102,63.804c2.828,27.904,21.273,55.105,55.077,62.625
	l227.22-45.426c37.396-7.48,61.653-43.86,54.174-81.253c-0.383-1.918-0.845-3.828-1.399-5.723l0,0
	c-10.282-35.423-46.609-56.509-82.475-47.856L288.615,252.141z"/>
<path fill="#263238" d="M288.615,252.141l2.101-0.545l6.204-1.526l23.895-5.831l87.957-21.307l60.735-14.75l33.856-8.172
	l8.787-2.101l4.51-0.854c0.756-0.152,1.503-0.314,2.263-0.432l2.303-0.202c1.541-0.123,3.087-0.314,4.624-0.393h4.696
	c1.565,0,3.137,0.113,4.683,0.324l2.361,0.241l1.178,0.127l1.164,0.221l4.677,0.957c1.556,0.363,3.063,0.883,4.604,1.335
	c0.761,0.246,1.535,0.452,2.302,0.727l2.238,0.893l2.243,0.923c0.766,0.275,1.507,0.614,2.223,0.997l4.33,2.253
	c1.438,0.795,2.778,1.738,4.172,2.685c0.688,0.452,1.35,0.874,2.052,1.335l1.938,1.526l1.964,1.542l0.972,0.765l0.897,0.854
	c10.15,9.115,17.4,21.008,20.865,34.206c3.578,13.689,2.876,28.154-2.036,41.426c-5.081,13.641-14.288,25.362-26.358,33.504
	c-5.09,3.437-10.626,6.171-16.447,8.134c-5.787,2.027-11.809,2.911-17.66,4.139l-34.854,6.954l-66.493,13.399l-116.847,23.315
	h-0.123c-5.949-1.409-11.741-3.461-17.248-6.121c-10.171-5.11-18.888-12.717-25.341-22.107c-2.906-4.289-5.379-8.854-7.368-13.64
	c-0.481-1.159-0.854-2.342-1.349-3.5c-0.442-1.134-0.82-2.292-1.134-3.465c-0.334-1.168-0.654-2.321-0.978-3.48l-0.722-3.436
	c-0.269-1.13-0.47-2.272-0.604-3.422c-0.152-1.124-0.309-2.247-0.451-3.356c-0.152-1.115-0.163-2.219-0.241-3.328
	c-0.083-1.095-0.152-2.179-0.142-3.254c-0.171-7.873,0.947-15.722,3.298-23.241c1.86-6.022,4.565-11.75,8.04-17.007
	c2.543-3.873,5.571-7.402,9.007-10.504c0.697-0.629,1.34-1.247,1.973-1.762l1.847-1.409l1.56-1.192l1.335-0.879l2.483-1.557
	l-2.444,1.631l-1.334,0.883l-1.557,1.207l-1.771,1.408c-0.633,0.521-1.257,1.145-1.958,1.768c-3.396,3.117-6.396,6.656-8.918,10.523
	c-3.446,5.248-6.131,10.961-7.972,16.968c-2.312,7.5-3.406,15.31-3.225,23.153c0,1.074,0,2.16,0.128,3.244
	c0.142,1.085,0.142,2.204,0.275,3.318c0.127,1.104,0.289,2.224,0.451,3.348c0.142,1.147,0.343,2.272,0.604,3.386
	c0.241,1.129,0.481,2.282,0.721,3.431c0.241,1.145,0.654,2.283,0.986,3.446c0.31,1.178,0.692,2.321,1.134,3.46
	c0.423,1.145,0.805,2.321,1.34,3.456c1.989,4.757,4.452,9.291,7.339,13.552c3.165,4.451,6.802,8.565,10.857,12.231
	c4.383,3.77,9.183,7.02,14.313,9.669c5.467,2.646,11.22,4.678,17.13,6.062h-0.104l116.809-23.48l66.586-13.316l34.85-6.97
	c5.869-1.246,11.873-2.111,17.571-4.128c5.762-1.929,11.24-4.633,16.275-8.045c11.953-8.069,21.081-19.682,26.099-33.209
	c4.863-13.14,5.565-27.453,2.027-41.015c-3.417-13.07-10.593-24.851-20.645-33.887l-0.899-0.844l-0.932-0.673l-1.93-1.507
	l-1.929-1.521c-0.647-0.49-1.34-0.893-2.042-1.335c-1.35-0.854-2.685-1.811-4.122-2.582l-4.29-2.243
	c-0.718-0.373-1.448-0.692-2.194-0.996l-2.233-0.894l-2.219-0.903c-0.756-0.255-1.517-0.476-2.282-0.697
	c-1.526-0.442-3.024-0.981-4.575-1.345l-4.623-0.938l-1.134-0.25l-1.188-0.118l-2.332-0.246c-1.536-0.21-3.097-0.318-4.644-0.328
	h-4.633c-1.542,0.078-3.068,0.27-4.585,0.393l-2.292,0.201c-0.756,0.108-1.497,0.27-2.253,0.422l-4.461,0.845l-8.816,1.998
	l-33.847,8.133l-60.756,14.636l-87.986,21.037l-23.938,5.763l-6.229,1.477L288.615,252.141z"/>
<path fill="#FF725E" d="M314.591,378.54l-29.965,68.143c0,0,141.399-13.631,135.366-89.214L314.591,378.54z"/>
<path fill="#FF725E" d="M395.621,226.348c0,0-67.989-65.972-154.38-38.186l47.409,63.969L395.621,226.348z"/>
<path fill="#FF725E" d="M519.748,197.345c29.17,21.444,47.017,105.299,32.96,131.926c82.699-24.193,100.041-95.163,100.041-95.163
	C592.971,178.428,519.748,197.345,519.748,197.345z"/>
<path fill="#455A64" d="M272.06,347.377c0.133,0.118-4.402,5.557-10.159,12.144c-5.754,6.572-10.535,11.8-10.715,11.667
	c-0.192-0.128,4.392-5.556,10.16-12.138C267.107,352.462,271.932,347.234,272.06,347.377z"/>
<path fill="#263238" d="M652.709,234.079c0,0-0.161,0.309-0.511,0.893l-1.57,2.602l-2.563,4.236
	c-0.515,0.834-1.055,1.727-1.639,2.679l-2.062,2.945c-1.468,2.081-3.053,4.408-4.864,6.911l-6.312,7.829
	c-1.198,1.336-2.484,2.685-3.779,4.143c-1.296,1.457-2.587,2.936-4.021,4.329c-2.979,2.817-6.032,5.88-9.601,8.718
	c-7.593,6.381-15.894,11.873-24.738,16.345c-4.928,2.513-10.012,4.682-15.23,6.513c-2.684,0.977-5.447,1.83-8.162,2.818
	c-2.837,0.901-5.719,1.643-8.644,2.218c-23.433,5.188-49.26,10.493-76.397,16.084c-54.242,11.196-103.37,21.199-138.935,28.385
	l-42.138,8.516l-11.46,2.273l-2.984,0.564c-0.673,0.138-1.026,0.182-1.026,0.182l1.006-0.245l2.975-0.644l11.441-2.381l42.089-8.688
	l138.91-28.587c27.104-5.629,52.946-10.925,76.397-16.084c2.896-0.574,5.737-1.295,8.556-2.169c2.773-1.017,5.517-1.841,8.183-2.817
	c5.197-1.807,10.263-3.971,15.166-6.45c8.83-4.446,17.11-9.875,24.708-16.207c3.549-2.812,6.626-5.86,9.582-8.653
	c1.496-1.335,2.772-2.905,4.104-4.295c1.325-1.374,2.591-2.753,3.788-4.107l6.342-7.77c1.821-2.484,3.426-4.796,4.918-6.848
	l2.076-2.936l1.669-2.685l2.616-4.191c0.702-1.114,1.247-1.968,1.619-2.572C652.586,234.329,652.709,234.079,652.709,234.079z"/>
<path fill="#263238" d="M437.544,354.053c0,0-0.094-0.084-0.246-0.274l-0.652-0.836l-2.45-3.215l-1.771-2.341
	c-0.622-0.863-1.236-1.86-1.928-2.905c-1.351-2.091-3.039-4.423-4.546-7.186L423.466,333c-0.854-1.486-1.604-3.126-2.448-4.774
	c-1.762-3.265-3.269-6.927-4.948-10.715c-6.906-16.776-10.876-34.619-11.74-52.745c-0.113-4.172-0.289-8.123-0.088-11.839
	c0.078-1.851,0-3.642,0.196-5.36c0.201-1.708,0.294-3.357,0.437-4.933c0.196-3.146,0.722-5.964,1.056-8.447
	c0.201-1.237,0.328-2.381,0.529-3.445c0.201-1.065,0.423-2.003,0.604-2.867c0.362-1.688,0.643-3.004,0.854-4.02
	c0.093-0.422,0.182-0.756,0.241-1.036c0.073-0.28,0.093-0.354,0.112-0.333c0.01,0.123,0.01,0.24,0,0.363
	c0,0.26-0.112,0.614-0.172,1.036l-0.726,4.02c-0.158,0.874-0.35,1.831-0.551,2.876s-0.294,2.213-0.461,3.46
	c-0.294,2.479-0.785,5.277-0.957,8.414c-0.123,1.565-0.251,3.215-0.383,4.913c-0.118,1.698-0.108,3.5-0.162,5.36
	c-0.177,3.696,0,7.637,0.152,11.79c0.907,18.043,4.835,35.806,11.652,52.542c1.648,3.801,3.136,7.471,4.863,10.716
	c0.845,1.649,1.581,3.269,2.415,4.775l2.439,4.29c1.478,2.778,3.117,5.119,4.432,7.229c0.688,1.056,1.341,2.053,1.891,2.936
	c0.554,0.884,1.197,1.65,1.703,2.37c1.001,1.342,1.777,2.514,2.361,3.299l0.593,0.874
	C437.421,353.852,437.49,353.939,437.544,354.053z"/>
<path fill="#FF725E" d="M373.711,283.766L231.199,313.25c0,0-0.634,13.93,2.876,14.032c2.925,0.099,108.875-19.02,143.234-25.233
	c5.036-0.912,8.384-5.737,7.48-10.774c-0.093-0.48-0.211-0.956-0.374-1.418l0,0C382.855,285.443,378.295,282.853,373.711,283.766z"
	/>
<ellipse fill="#FAFAFA" cx="482.848" cy="270.557" rx="34.059" ry="31.654"/>
<path fill="#263238" d="M516.925,270.616c-0.009-0.182-0.009-0.358,0-0.53c0-0.393-0.082-0.898-0.122-1.561
	c0-0.349,0-0.723-0.078-1.154c-0.083-0.422-0.152-0.863-0.246-1.34c-0.098-0.461-0.176-1.016-0.27-1.575
	c-0.088-0.564-0.319-1.158-0.49-1.782c-0.394-1.374-0.885-2.714-1.469-4.02c-2.493-5.379-6.396-9.973-11.298-13.277
	c-4.192-2.857-8.958-4.766-13.965-5.581c-1.363-0.231-2.743-0.383-4.133-0.432c-0.712,0-1.423-0.089-2.13-0.079l-2.16,0.108h-1.084
	l-1.085,0.142l-2.204,0.319l-2.18,0.525l-1.119,0.25l-1.064,0.374c-6.131,1.948-11.579,5.629-15.682,10.583
	c-9.184,10.96-9.184,26.932,0,37.896c4.084,4.978,9.521,8.658,15.643,10.627l1.084,0.383l1.12,0.26l2.18,0.525l2.188,0.319
	l1.09,0.161h1.094l2.15,0.108c0.717,0,1.429,0,2.12-0.068c1.389-0.049,2.769-0.192,4.134-0.423c4.976-0.805,9.708-2.704,13.87-5.546
	c6.233-4.024,10.798-10.175,12.83-17.312c0.157-0.634,0.358-1.208,0.481-1.772c0.117-0.559,0.201-1.094,0.279-1.595
	c0.083-0.495,0.172-0.938,0.241-1.34c0.073-0.397,0-0.8,0.083-1.134c0.049-0.663,0.098-1.188,0.118-1.566
	c0.009-0.182,0.029-0.353,0.072-0.525c0.011,0.182,0.011,0.364,0,0.535v1.557c0,0.354,0,0.736,0,1.168s-0.142,0.883-0.21,1.335
	c-0.084,0.452-0.162,1.036-0.245,1.61c-0.078,0.568-0.31,1.152-0.472,1.796c-0.383,1.409-0.854,2.778-1.438,4.113
	c-0.713,1.586-1.547,3.107-2.514,4.564c-2.341,3.529-5.354,6.572-8.854,8.968c-4.241,2.926-9.075,4.864-14.165,5.689
	c-1.385,0.23-2.783,0.377-4.192,0.441c-0.702,0-1.433,0.088-2.15,0.079l-2.178-0.089h-1.119l-1.115-0.163l-2.243-0.323l-2.219-0.521
	l-1.128-0.27l-1.096-0.373c-6.263-1.993-11.809-5.753-15.991-10.818c-9.418-11.196-9.418-27.55,0-38.741
	c4.222-5.045,9.813-8.776,16.086-10.725l1.094-0.363l1.124-0.26l2.243-0.521l2.243-0.324l1.095-0.152h1.113l2.205-0.098
	c0.722,0,1.447,0.068,2.149,0.098c1.408,0.054,2.812,0.211,4.191,0.457c5.036,0.83,9.832,2.753,14.033,5.645
	c3.5,2.396,6.493,5.448,8.825,8.997c1.801,2.655,3.126,5.591,3.932,8.688c0.161,0.633,0.328,1.217,0.451,1.802
	c0.123,0.569,0.182,1.104,0.241,1.604c0.059,0.496,0.152,0.957,0.21,1.34c0.074,0.388,0,0.801,0,1.154c0,0.672,0,1.188,0,1.57
	C516.882,270.223,516.916,270.424,516.925,270.616z"/>
<path fill="#455A64" d="M367.458,189.124c-10.945-0.53-16.345,7.72-22.475,9.379c-6.126,1.669-12.82,1.958-18.701-0.422
	c-7.638-3.117-12.854-10.146-19.54-14.96c-13.399-9.66-33.303-9.085-46.138,1.34c-0.294,7.309,5.949,13.086,11.991,17.179
	c6.042,4.098,22.789,10.003,24.968,16.997c1.61,5.228-9.678,9.621-6.832,14.293c2.842,4.677,12.23,4.211,17.419,3.318
	c32.729-5.63,21.238,4.383,31.383,3.46c0,0,21.209-5.359,37.844-8.123"/>
<polyline fill="#FFBE9D" points="477.772,381.834 467.146,357.135 489.832,347.304 497.734,378.294 478.733,381.834 "/>
<path fill="#FF725E" d="M497.725,374.274l6.705,21.646c0,0,24.218,0.51,25.843,4.402l-41.545,14.382l-11.731-33.294L497.725,374.274
	z"/>
<g opacity="0.6">
	<path fill="#FFFFFF" d="M490.906,398.562c-0.73,0.544-0.952,1.551-0.49,2.341c0.51,0.766,1.517,0.997,2.302,0.525
		c0.785-0.574,1.017-1.64,0.525-2.483c-0.613-0.746-1.703-0.864-2.474-0.28"/>
</g>
<g opacity="0.6">
	<path fill="#FFFFFF" d="M488.718,414.694l-1.045-3.406l40.208-12.517c0,0,2.131,0.163,2.371,1.536L488.718,414.694z"/>
</g>
<path fill="#263238" d="M504.974,395.474c0,0.201-0.927,0.644-1.692,1.639c-0.762,0.997-1.021,2.042-1.232,2.033
	c-0.211-0.01-0.314-1.35,0.644-2.484C503.645,395.527,504.939,395.272,504.974,395.474z"/>
<path fill="#263238" d="M509.937,395.758c0.112,0.192-0.644,0.836-1.036,1.93c-0.393,1.095-0.279,2.062-0.48,2.13
	c-0.201,0.059-0.731-1.046-0.221-2.4C508.709,396.058,509.877,395.577,509.937,395.758z"/>
<path fill="#263238" d="M514.222,400.122c-0.173,0.107-0.806-0.805-0.677-2.101c0.142-1.301,0.946-2.052,1.079-1.915
	c0.127,0.134-0.222,0.938-0.324,2.003C514.201,399.154,514.423,400.019,514.222,400.122z"/>
<path fill="#263238" d="M502.902,390.713c0,0.211-1.046,0.25-2.174,0.731c-1.124,0.48-1.88,1.139-2.053,1.006
	c-0.166-0.132,0.448-1.158,1.773-1.698C501.773,390.197,502.952,390.521,502.902,390.713z"/>
<path fill="#263238" d="M501.484,386.369c-0.623,0.422-1.336,0.672-2.091,0.712c-0.796,0.122-1.601,0.161-2.405,0.093
	c-0.472-0.04-0.942-0.123-1.404-0.221c-0.284-0.044-0.555-0.133-0.805-0.274c-0.383-0.201-0.573-0.634-0.472-1.046
	c0.108-0.359,0.379-0.644,0.732-0.771c0.26-0.093,0.535-0.143,0.805-0.162c0.481-0.04,0.967-0.04,1.447,0
	c0.814,0.069,1.61,0.271,2.361,0.594c1.34,0.563,1.86,1.207,1.812,1.267c-0.049,0.069-0.766-0.373-2.002-0.775
	c-0.713-0.23-1.458-0.374-2.21-0.403c-0.441-0.028-0.898-0.028-1.339,0c-0.482,0-0.855,0.162-0.894,0.394
	c-0.04,0.23,0,0.122,0.132,0.23c0.182,0.093,0.378,0.152,0.569,0.19c0.442,0.114,0.889,0.202,1.35,0.251
	c0.751,0.094,1.518,0.113,2.283,0.073C500.056,386.408,500.768,386.369,501.484,386.369z"/>
<path fill="#263238" d="M501.323,386.751c0,0-0.722-0.534-1.248-1.82c-0.31-0.751-0.48-1.556-0.511-2.37
	c-0.009-0.486,0.021-0.978,0.1-1.448c0.019-0.634,0.392-1.218,0.967-1.498c0.382-0.132,0.794-0.019,1.055,0.271
	c0.191,0.212,0.354,0.442,0.48,0.692c0.222,0.422,0.394,0.863,0.481,1.34c0.172,0.814,0.123,1.659-0.128,2.449
	c-0.441,1.34-1.207,1.89-1.247,1.841c0.281-0.644,0.521-1.296,0.732-1.969c0.161-0.717,0.161-1.458,0-2.174
	c-0.089-0.423-0.241-0.825-0.451-1.193c-0.212-0.421-0.512-0.717-0.653-0.623c-0.29,0.221-0.472,0.57-0.481,0.933
	c-0.084,0.442-0.133,0.894-0.133,1.34c0,0.751,0.114,1.487,0.324,2.209C500.93,386.006,501.416,386.693,501.323,386.751z"/>
<path fill="#263238" d="M369.245,189.948c0,0-19.658,38.943-6.439,48.072c13.208,9.125,74.939,55.498,74.939,55.498l31.482,84.075
	l29.494-12.064l-24.571-98.411l-62.021-55.73L369.245,189.948z"/>
<path fill="#455A64" d="M444.96,278.086c0.172,0.143-1.87,2.843-3.377,6.706c-1.517,3.857-1.93,7.195-2.14,7.166
	C439.531,286.813,441.499,281.885,444.96,278.086z"/>
<path fill="#455A64" d="M440.096,277.271c0.201,0-0.688,3.244-0.976,7.299c-0.29,4.04,0,7.328-0.173,7.357
	c-0.643-2.414-0.824-4.938-0.52-7.406C438.496,282.018,439.069,279.564,440.096,277.271z"/>
<path fill="#455A64" d="M472.191,376.326c-0.078-0.132-0.143-0.27-0.191-0.422c-0.132-0.314-0.29-0.727-0.511-1.257
	c-0.457-1.148-1.09-2.764-1.898-4.854c-1.63-4.23-4.025-10.404-6.818-18.097c-2.783-7.695-6.204-16.923-9.729-27.358
	c-0.888-2.597-1.762-5.291-2.616-8.045c-0.854-2.744-1.648-5.595-2.803-8.413c-2.253-5.59-4.947-11.249-7.902-16.978l0.098,0.104
	c-3.313-2.809-6.813-5.744-10.399-8.688c-2.809-2.302-5.581-4.575-8.374-6.704l-8.315-6.303c-5.447-4.143-10.724-8.123-15.834-11.75
	c-5.104-3.628-10.14-6.828-14.744-10.004c-4.344-2.867-8.403-6.111-12.153-9.708c-1.64-1.59-3.087-3.357-4.324-5.276
	c-1.075-1.743-1.871-3.632-2.352-5.62c-0.731-3.175-0.776-6.484-0.118-9.684c0.398-2.007,0.972-3.976,1.718-5.88
	c0.24-0.653,0.461-1.133,0.604-1.467c0.068-0.167,0.148-0.339,0.241-0.491c0,0,0,0.191-0.182,0.525
	c-0.171,0.339-0.324,0.834-0.535,1.487c-0.682,1.919-1.212,3.888-1.575,5.89c-0.594,3.156-0.505,6.401,0.24,9.527
	c0.491,1.934,1.276,3.779,2.341,5.478c1.237,1.88,2.675,3.612,4.285,5.169c3.76,3.548,7.819,6.753,12.144,9.601
	c4.613,3.136,9.688,6.292,14.813,9.939c5.129,3.651,10.415,7.593,15.873,11.73l8.334,6.293c2.823,2.145,5.601,4.407,8.403,6.704
	c3.588,2.97,7.097,5.904,10.405,8.717l0,0v0.069c2.945,5.763,5.65,11.431,7.902,17.061c1.065,2.755,1.998,5.581,2.784,8.423
	c0.843,2.764,1.717,5.449,2.571,8.04c3.49,10.425,6.809,19.663,9.581,27.384l6.622,18.166c0.765,2.101,1.339,3.75,1.781,4.903
	l0.441,1.34C472.078,376.013,472.152,376.165,472.191,376.326z"/>
<polygon fill="#263238" points="393.492,202.415 431.512,207.799 450.992,212.757 424.311,222.328 "/>
<path fill="#263238" d="M346.96,199.656c-0.211,0.344-0.48,0.644-0.794,0.918c-0.761,0.78-1.576,1.517-2.44,2.199
	c-5.684,4.545-12.526,7.401-19.747,8.246c-1.084,0.128-2.179,0.201-3.273,0.191c-0.403,0.04-0.814,0.01-1.208-0.083
	c0-0.118,1.698-0.181,4.402-0.604c3.53-0.54,6.965-1.507,10.254-2.886c3.289-1.384,6.391-3.141,9.257-5.267
	C345.635,200.746,346.882,199.578,346.96,199.656z"/>
<path fill="#FF725E" d="M374.25,144.011l-7.327,55.116c0,0,24.37-1.6,41.548,4.113c17.18,5.709,27.742,5.547,27.742,5.547
	l-3.589-34.29l12.825-28.144l5.65,32.9l26.348,27.128l17.169-3.887l-17.803-29.803l-12.354-60.736l0,0
	c-1.046-5.07-3.779-9.62-7.77-12.909l-0.491-0.402l-25.867-14.426l-8.683,0.172c-7.338,0.162-14.656,0.913-21.877,2.253
	c-4.5,0.834-8.633,3.053-11.828,6.341l0,0c-2.876,3.225-4.948,7.088-6.053,11.27L374.25,144.011z"/>
<path fill="#263238" d="M456.421,120.962c-0.162,0.613-0.373,1.202-0.644,1.776l-1.953,4.717c-1.688,4.02-4.02,9.448-6.704,15.481
	l-6.862,15.426c-0.858,1.86-1.58,3.421-2.135,4.643c-0.241,0.584-0.521,1.139-0.845,1.679c0.123-0.624,0.324-1.212,0.595-1.777
	c0.44-1.149,1.095-2.744,1.929-4.747c1.669-4.02,4.024-9.458,6.704-15.5c2.686-6.052,5.109-11.48,6.906-15.397l2.175-4.634
	C455.808,122.046,456.078,121.481,456.421,120.962z"/>
<path fill="#FF725E" d="M383.313,111.361c5.035,14.043,14.733,46.118,19.46,58.492c1.443,3.76,3.868,7.058,7.015,9.562
	l52.273,36.979l12.06-15.701l-39.173-37.794l-21.13-62.585c-2.976-8.354-15.32-12.88-22.991-8.413l0,0
	C385.029,95.345,381.049,104.926,383.313,111.361z"/>
<path fill="#263238" d="M414.843,102.914c0,0,0.151,0.363,0.402,1.08l1.124,3.186c0.967,2.832,2.386,6.916,4.172,12.133
	l14.75,43.493l-0.084-0.118l39.247,37.755l0.212,0.211l-0.192,0.24l-8.688,11.299c-1.164,1.497-2.312,3.019-3.387,4.413
	l-0.201,0.265l-0.279-0.201l-40.132-28.91l-8.996-6.474l-2.159-1.551c-0.731-0.5-1.438-1.055-2.091-1.649
	c-1.276-1.192-2.392-2.542-3.329-4.02c-0.883-1.418-1.619-2.925-2.179-4.491l-1.728-4.457c-1.099-2.9-2.145-5.708-3.117-8.403
	c-3.844-10.725-6.705-19.481-8.604-25.553c-0.938-3.014-1.659-5.355-2.175-6.975c-0.221-0.785-0.422-1.334-0.53-1.831
	c-0.063-0.211-0.122-0.422-0.162-0.633c0,0,0.078,0.201,0.222,0.623c0.151,0.413,0.343,1.036,0.604,1.792
	c0.521,1.605,1.335,3.941,2.292,6.945c1.998,6.033,4.894,14.745,8.806,25.459c0.986,2.686,2.041,5.473,3.146,8.374
	c0.575,1.448,1.153,2.936,1.737,4.437c0.565,1.526,1.276,3.004,2.16,4.383c0.919,1.414,2.003,2.714,3.24,3.858
	c0.633,0.584,1.314,1.114,2.041,1.6l2.169,1.556l9.018,6.493l40.208,28.861h-0.44l3.387-4.403l8.688-11.29v0.452l-39.163-37.725l0,0
	v-0.069c-6.033-18.058-11.03-33.053-14.539-43.566l-4.021-12.188l-1.035-3.205C414.945,103.297,414.843,102.914,414.843,102.914z"/>
<path fill="#263238" d="M409.847,95.286c-0.08,0.079-0.952-0.834-2.681-1.89c-4.486-2.822-10.125-3.097-14.867-0.712
	c-1.802,0.884-2.749,1.708-2.827,1.615c0.702-0.864,1.591-1.575,2.592-2.062c4.84-2.733,10.818-2.439,15.362,0.736
	C408.397,93.559,409.213,94.344,409.847,95.286z"/>
<path fill="#263238" d="M477.963,173.515c0,0.211-2.482,0-5.369,0.663c-2.886,0.672-4.958,2.037-5.075,1.85
	c1.345-1.32,3.063-2.204,4.923-2.538C474.243,172.941,476.173,172.95,477.963,173.515z"/>
<path fill="#FAFAFA" d="M390.184,132.491c-0.167,0.059-0.339,0.108-0.521,0.127c-0.472,0.113-0.967,0.182-1.447,0.23
	c-1.621,0.172-3.245,0.064-4.825-0.309c-2.053-0.545-3.962-1.536-5.581-2.915c-0.138-0.113-0.271-0.231-0.394-0.374
	c1.822,1.35,3.863,2.366,6.033,2.995C385.672,132.702,387.945,132.771,390.184,132.491z"/>
<path fill="#FAFAFA" d="M394.267,144.443c-0.805-0.535-1.63-1.026-2.482-1.468c-2.102-0.987-4.384-1.561-6.705-1.698
	c-2.313-0.143-4.644-0.093-6.956,0.147l-2.1,0.201c-0.26,0.02-0.526,0.02-0.776,0c0.241-0.069,0.506-0.118,0.767-0.147
	c0.49-0.083,1.201-0.172,2.101-0.285c2.312-0.309,4.652-0.393,6.984-0.24c2.33,0.151,4.604,0.775,6.704,1.811
	c0.634,0.319,1.236,0.702,1.802,1.124C393.835,144.05,394.065,144.232,394.267,144.443z"/>
<g opacity="0.4">
	<path d="M387.503,124.137c0,0,1.335,20.958,2.916,30.647c1.566,9.689,4.624,19.555,11.56,26.49
		c6.945,6.926,16.918,10.062,26.606,12.06c-3.136-2.352-6.192-4.786-9.206-7.289c-3.873-3.215-9.562-6.361-12.679-10.333
		c-6.009-7.618-7.309-17.257-10.401-26.456c-2.847-8.496-5.943-16.575-8.796-25.062"/>
</g>
<path fill="#FAFAFA" d="M423.908,132.31c-0.339,0.24-0.701,0.422-1.095,0.55c-1.075,0.383-2.209,0.555-3.348,0.516
	c-2.885,0-6.704-1.335-11.043-0.958c-3.701,0.294-7.27,1.438-10.444,3.348c-0.958,0.584-1.881,1.227-2.745,1.929l-0.696,0.594
	c-0.162,0.142-0.251,0.201-0.251,0.191c1.065-1.114,2.272-2.091,3.589-2.886c3.175-1.978,6.798-3.166,10.533-3.456
	c4.402-0.422,8.245,1.026,11.058,1.036c1.119,0.059,2.243-0.069,3.318-0.402C423.521,132.58,423.889,132.31,423.908,132.31z"/>
<path fill="#FAFAFA" d="M420.021,122.193c-0.083,0.064-0.172,0.123-0.27,0.172l-0.766,0.442c-0.673,0.393-1.669,0.898-2.916,1.487
	c-6.542,3.068-13.64,4.756-20.869,4.968c-1.336,0-2.504,0-3.264,0h-0.885c-0.104,0.01-0.211,0.01-0.313,0h0.313h0.885
	c0.76,0,1.888,0,3.253-0.069c3.578-0.162,7.137-0.643,10.626-1.467c3.49-0.835,6.897-2.003,10.176-3.46
	c1.246-0.56,2.247-1.056,2.935-1.335l0.791-0.403C419.908,122.218,420.012,122.174,420.021,122.193z"/>
<path fill="#FAFAFA" d="M449.706,133.184l-0.362-0.079c-0.354-0.103-0.683-0.211-1.026-0.353c-1.208-0.535-2.312-1.266-3.27-2.174
	c-2.542-2.169-4.893-6.239-8.844-9.375c-4.402-3.52-9.71-5.704-15.31-6.312l-1.055-0.113c-0.123,0.02-0.241,0.02-0.363,0
	c1.811,0,3.612,0.211,5.36,0.643c4.23,0.986,8.182,2.916,11.578,5.63c1.84,1.517,3.509,3.234,4.977,5.115
	c1.178,1.541,2.454,2.989,3.828,4.344c0.938,0.903,2.022,1.649,3.187,2.214C449.211,133.051,449.726,133.144,449.706,133.184z"/>
<path fill="#FAFAFA" d="M448.136,139.579c-0.383-0.093-0.751-0.207-1.124-0.324c-0.978-0.412-1.88-0.967-2.686-1.649
	c-1.188-1.025-2.292-2.15-3.288-3.357c-1.218-1.457-2.562-2.802-4.02-4.02c-1.487-1.178-3.278-1.939-5.159-2.214
	c-1.536-0.211-3.092-0.24-4.633-0.088c-1.336,0.117-2.4,0.279-3.137,0.373l-0.854,0.118c-0.099,0.01-0.202,0.01-0.29,0
	c0.088-0.039,0.191-0.069,0.28-0.079l0.844-0.171c0.736-0.132,1.812-0.324,3.137-0.452c1.561-0.201,3.146-0.201,4.707,0
	c1.958,0.241,3.809,1.026,5.354,2.253c1.468,1.247,2.827,2.622,4.021,4.128c0.996,1.207,2.07,2.331,3.22,3.376
	c0.806,0.697,1.708,1.256,2.685,1.693C447.753,139.427,448.136,139.544,448.136,139.579z"/>
<path fill="#FAFAFA" d="M468.672,135.265c-0.962-0.26-1.968-0.364-2.975-0.29c-1.084,0.088-2.148,0.329-3.175,0.711
	c-1.159,0.403-2.386,0.997-3.691,1.575c-1.228,0.575-2.493,1.026-3.809,1.34c-1.086,0.25-2.199,0.309-3.309,0.182
	c-0.74-0.103-1.468-0.343-2.131-0.697c-0.21-0.108-0.421-0.25-0.603-0.403c0.854,0.515,1.82,0.844,2.816,0.967
	c1.075,0.113,2.17,0.029,3.215-0.221c1.286-0.324,2.543-0.776,3.75-1.335c1.336-0.594,2.543-1.168,3.731-1.571
	c1.045-0.373,2.14-0.594,3.244-0.663c0.756-0.039,1.496,0.02,2.224,0.211C468.211,135.093,468.441,135.161,468.672,135.265z"/>
<path fill="#FAFAFA" d="M470.793,142.553c-1.075-0.814-2.361-1.276-3.697-1.34c-1.447-0.049-2.876,0.211-4.201,0.766
	c-1.619,0.722-3.146,1.62-4.573,2.685c-1.429,1.065-2.945,2.018-4.546,2.833c-1.315,0.643-2.753,1.035-4.222,1.139
	c-0.995,0.049-1.982-0.093-2.915-0.432c-0.344-0.133-0.662-0.305-0.967-0.506c1.198,0.584,2.533,0.834,3.862,0.736
	c1.439-0.133,2.832-0.525,4.134-1.168c1.565-0.835,3.063-1.767,4.49-2.822c1.439-1.065,2.995-1.964,4.634-2.686
	c1.369-0.554,2.848-0.804,4.324-0.726c0.996,0.064,1.958,0.343,2.822,0.834C470.253,142.048,470.532,142.278,470.793,142.553z"/>
<g opacity="0.4">
	<path d="M448.509,164.135c2.685-10.979,3.269-22.857,3.656-34.156c-0.952,3.946-3.376,7.367-4.874,11.156
		c-0.722,1.802-1.86,5.065-1.86,5.065l3.029,17.66"/>
</g>
<path fill="#263238" d="M430.805,35.002c-0.3,2.062-1.737,3.779-3.706,4.441c-1.1,0.364-2.302,0.364-3.387,0.786
	c-1.158,0.324-1.925,1.409-1.851,2.606c0.192,0.854,0.972,1.404,1.615,1.978c0.643,0.575,1.237,1.487,0.858,2.263
	c-0.372,0.785-1.648,0.933-2.292,1.649c-0.604,0.844-0.545,1.998,0.146,2.773c0.698,0.731,1.488,1.364,2.377,1.87
	c0.883,0.5,1.536,1.335,1.815,2.312"/>
<path fill="#263238" d="M470.563,52.412c2.944-6.229,0.804-13.994-3.79-19.138c-4.595-5.148-11.186-8.04-17.812-9.963
	c-0.943-0.271-2.131-0.472-2.794,0.265c-0.524,0.731-0.441,1.728,0.172,2.381c0.624,0.623,1.385,1.084,2.22,1.334
	c-2.675-1.394-5.621-2.188-8.624-2.341c-1.056-0.079-2.111,0.142-3.049,0.643c-0.932,0.545-1.403,1.62-1.192,2.685
	c0.27,0.864,1.192,1.345,2.07,1.075c0.178-0.059,0.35-0.152,0.501-0.26c-2.865-0.314-5.762,0.373-8.182,1.919
	c-1.718,1.095-3.288,2.994-2.867,4.997c0.432,1.114,0.938,2.199,1.498,3.254c0.716,2.082-0.319,4.305-1.104,6.346
	c-1.316,3.166-1.777,6.622-1.335,10.023c0.451,3.436,2.419,6.494,5.354,8.33"/>
<path fill="#FFBE9D" d="M429.459,104.965c-7.318-1.958-11.661-9.488-9.698-16.806c0.029-0.113,0.059-0.221,0.088-0.334
	l12.306-41.651c2.793-10.499,13.581-16.748,24.085-13.945c0.182,0.049,0.363,0.099,0.54,0.162l0.967,0.348
	c9.709,3.51,15.089,13.886,12.384,23.845c-2.532,9.257-5.448,19.481-7.269,24.286c-3.746,9.944-14.313,7.883-14.313,7.883
	l-2.592,7.465C443.604,103.007,436.395,106.826,429.459,104.965z"/>
<path fill="#EB996E" d="M448.616,88.621c-4.644-1.586-8.722-4.511-11.695-8.414c0,0,0.48,8.315,10.724,11.02L448.616,88.621z"/>
<path fill="#263238" d="M446.727,38.492c-0.81-1.802-1.846-5.708-3.244-7.117c-1.399-1.409-3.662-0.938-5.561-0.403
	c-1.988,0.575-3.578,2.072-4.271,4.02c-2.686,7.196-2.945,14.013-4.903,21.082c-0.182,0.461-0.221,0.962-0.123,1.448
	c0.373,1.193,1.688,1.625,2.936,1.806c3.067,0.442,4.633-1.796,6.081-4.491c0.481-1.629,0.844-3.298,1.065-4.987
	c0.354-4.815,3.239-9.076,7.588-11.186L446.727,38.492z"/>
<path fill="#FFBE9D" d="M433.872,51.892c-0.132-0.133-6.13-4.516-8.383,2.4s5.158,7.76,5.237,7.559
	C430.805,61.649,433.872,51.892,433.872,51.892z"/>
<path fill="#EB996E" d="M429.47,58.597c0,0-0.152,0-0.394,0.078c-0.328,0.02-0.652-0.078-0.912-0.279
	c-0.718-0.874-0.908-2.072-0.496-3.127c0.183-0.604,0.485-1.158,0.898-1.629c0.271-0.393,0.722-0.633,1.202-0.633
	c0.305,0.019,0.555,0.259,0.604,0.564c0,0.221,0,0.339,0,0.374c0,0.019,0.19-0.074,0.221-0.374c0.01-0.191-0.03-0.373-0.128-0.525
	c-0.152-0.211-0.372-0.349-0.624-0.393c-0.613-0.069-1.227,0.181-1.609,0.667c-0.481,0.5-0.844,1.114-1.046,1.787
	c-0.471,1.237-0.172,2.646,0.796,3.559c0.329,0.23,0.766,0.289,1.144,0.171C429.4,58.714,429.479,58.597,429.47,58.597z"/>
<path fill="#263238" d="M444.066,39.979c3.396-2.332,6.916-1.178,9.258,0.191c2.341,1.364,4.333,3.298,6.705,4.54
	c2.37,1.247,5.545,1.679,7.69,0c1.526-1.365,2.42-3.313,2.449-5.355c0.314-3.902-0.952-7.76-3.505-10.725
	c-0.656-0.766-1.678-1.497-2.605-1.099c-1.134,0.515-0.952,2.174-0.595,3.357c0,0-11.627-4.3-18.764-1.817
	C437.563,31.557,444.066,39.979,444.066,39.979z"/>
<path fill="#455A64" d="M448.44,23.183c0,0,0.127,0.51,0.49,1.335c0.545,1.158,1.296,2.204,2.214,3.098
	c1.354,1.325,2.921,2.419,4.633,3.244c1.012,0.476,2.072,0.834,3.166,1.055c1.135,0.255,2.352,0.422,3.588,0.766
	c1.237,0.3,2.381,0.884,3.358,1.698c0.893,0.786,1.59,1.762,2.021,2.876c0.403,1.006,0.54,2.091,0.423,3.156
	c-0.123,0.923-0.468,1.812-0.997,2.572c-0.756,1.119-1.87,1.953-3.146,2.366c-0.354,0.098-0.707,0.147-1.064,0.157
	c-0.241,0-0.383,0-0.383,0s0.52,0,1.335-0.358c1.188-0.466,2.194-1.291,2.876-2.365c0.461-0.722,0.756-1.547,0.854-2.41
	c0.094-0.986-0.05-1.974-0.442-2.886c-0.402-1.036-1.045-1.949-1.89-2.686c-0.903-0.741-1.958-1.266-3.097-1.536
	c-1.183-0.324-2.4-0.515-3.569-0.786c-1.133-0.24-2.232-0.623-3.264-1.133c-1.761-0.864-3.348-2.032-4.707-3.451
	c-0.922-0.942-1.648-2.071-2.109-3.308c-0.134-0.338-0.212-0.682-0.252-1.045C448.44,23.443,448.43,23.311,448.44,23.183z"/>
<path fill="#455A64" d="M440.758,25.274c0,0,0.183,0.51,0.565,1.335c0.579,1.207,1.384,2.282,2.381,3.175
	c1.487,1.311,3.233,2.302,5.139,2.906c2.341,0.736,4.731,1.286,7.156,1.669c2.469,0.354,4.884,1.045,7.166,2.062
	c1.035,0.5,1.86,1.335,2.342,2.371c0.353,0.927,0.412,1.943,0.161,2.905c-0.402,1.37-1.276,2.533-2.483,3.289
	c-0.309,0.211-0.643,0.383-0.996,0.52c-0.118,0.064-0.241,0.103-0.373,0.123c0,0,0.466-0.26,1.236-0.844
	c1.081-0.776,1.852-1.89,2.185-3.176c0.211-0.854,0.152-1.762-0.172-2.586c-0.451-0.913-1.217-1.659-2.14-2.081
	c-2.254-0.953-4.604-1.615-7.028-1.959c-2.455-0.383-4.865-0.967-7.226-1.737c-1.953-0.643-3.74-1.708-5.237-3.107
	c-1.006-0.967-1.791-2.121-2.302-3.406c-0.143-0.354-0.24-0.707-0.314-1.065C440.777,25.544,440.749,25.402,440.758,25.274z"/>
<path fill="#263238" d="M463.445,61.379c-0.28,0.845-1.184,1.306-2.042,1.045c-0.83-0.211-1.345-1.065-1.135-1.899
	c0-0.02,0.011-0.029,0.011-0.049c0.279-0.844,1.197-1.315,2.051-1.055c0.845,0.221,1.346,1.095,1.115,1.939
	C463.454,61.36,463.445,61.37,463.445,61.379z"/>
<path fill="#263238" d="M466.41,60.506c-0.271,0.133-1.135-1.148-2.823-1.718c-1.688-0.574-3.186-0.172-3.298-0.442
	c-0.107-0.274,0.25-0.422,0.938-0.624c1.825-0.515,3.778,0.182,4.894,1.718C466.503,60.015,466.542,60.447,466.41,60.506z"/>
<path fill="#263238" d="M446.879,56.614c-0.279,0.844-1.198,1.31-2.051,1.045c-0.835-0.221-1.336-1.075-1.124-1.909
	c0-0.01,0.009-0.03,0.009-0.04c0.28-0.844,1.188-1.315,2.042-1.055c0.845,0.221,1.354,1.075,1.134,1.929
	C446.889,56.584,446.879,56.594,446.879,56.614z"/>
<path fill="#263238" d="M449.824,55.077c-0.271,0.152-1.134-1.133-2.813-1.708c-1.679-0.584-3.195-0.182-3.308-0.442
	c-0.114-0.274,0.269-0.421,0.932-0.624c0.889-0.24,1.821-0.21,2.686,0.089c0.873,0.304,1.629,0.864,2.164,1.629
	C449.907,54.577,449.947,55.028,449.824,55.077z"/>
<path fill="#263238" d="M451.665,69.645c0.986,0.03,1.948,0.177,2.896,0.452c0.442,0.108,0.864,0.157,1.046-0.113
	c0.182-0.422,0.24-0.884,0.162-1.335c0-1.188-0.104-2.416-0.143-3.701c-0.211-3.166-0.183-6.351,0.118-9.517
	c0.466,3.146,0.677,6.322,0.647,9.498c0,1.334,0,2.522,0,3.7c0.089,0.614-0.034,1.237-0.364,1.758
	c-0.22,0.259-0.563,0.402-0.901,0.393c-0.267,0-0.525-0.04-0.786-0.123C453.412,70.426,452.51,70.087,451.665,69.645z"/>
<path fill="#263238" d="M446.305,69.09c0.265,0-0.357,1.89,0.756,3.73c1.104,1.841,3.127,2.302,3.048,2.572
	c-0.083,0.27-0.555,0.201-1.349,0c-1.066-0.354-1.979-1.075-2.573-2.042c-0.573-0.913-0.765-2.026-0.524-3.087
	C445.784,69.41,446.128,69.042,446.305,69.09z"/>
<path fill="#263238" d="M452.548,48.663c-0.328,0.402-1.928-0.388-4.019-0.845c-2.092-0.452-3.819-0.452-3.942-0.952
	c0-0.24,0.383-0.574,1.168-0.795c2.111-0.51,4.339-0.01,6.033,1.335C452.46,47.99,452.7,48.471,452.548,48.663z"/>
<path fill="#263238" d="M467.5,55.431c-0.423,0.279-1.449-0.506-2.828-1.016c-1.375-0.515-2.685-0.633-2.782-1.129
	c0-0.221,0.26-0.54,0.893-0.731c1.718-0.383,3.499,0.299,4.535,1.728C467.656,54.847,467.75,55.298,467.5,55.431z"/>
<path fill="#455A64" d="M435.905,204.143c3.097,1.124,4.902,4.329,4.289,7.559l-9.056,3.578l-2.071-8.717L435.905,204.143z"/>
<path fill="#455A64" d="M359.859,204.113c0,0,18.132-1.88,29.48,2.13c11.352,4,25.562,6.994,31.825,5.586
	c3.347-0.811,6.347-2.69,8.535-5.355c0,0-18.063-2.169-26.579-4.918c-5.718-1.846-17.036-14.676-37.965-11.579L359.859,204.113z"/>
<path fill="#455A64" d="M432.518,210.676c-0.648-1.659-1.649-3.146-2.926-4.383l0.157,0.211c-1.898,0.078-3.779,0.363-5.63,0.824
	c-1.845,0.471-3.504,1.507-4.751,2.945c-0.423,0.452-0.662,1.055-0.662,1.689c0.176,0.824,0.691,1.526,1.413,1.948
	c1.659,1.502,3.593,2.656,5.704,3.392c2.159,0.721,4.539,0.108,6.08-1.571C432.915,214.254,433.15,212.364,432.518,210.676z"/>
<path fill="#263238" d="M419.349,210.052c0.108-0.382,0.299-0.736,0.579-1.036c0.727-0.795,1.649-1.389,2.685-1.698
	c1.532-0.5,3.146-0.643,4.747-0.403c1.978,0.3,3.75,1.448,4.825,3.137c0.555,0.883,0.813,1.91,0.765,2.945
	c-0.074,0.977-0.422,1.899-1.006,2.685c-0.525,0.692-1.246,1.227-2.082,1.517c-0.716,0.24-1.467,0.334-2.223,0.26
	c-1.075-0.098-2.12-0.358-3.127-0.771c-0.348-0.132-0.623-0.255-0.8-0.354c-0.103-0.029-0.191-0.078-0.274-0.152l0.295,0.093
	l0.823,0.29c0.992,0.373,2.038,0.604,3.092,0.682c1.552,0.152,3.059-0.501,4.025-1.728c1.193-1.557,1.276-3.711,0.212-5.355
	c-1.046-1.629-2.739-2.724-4.639-3.019c-1.546-0.25-3.146-0.137-4.634,0.334c-1.016,0.29-1.93,0.834-2.685,1.576
	C419.696,209.38,419.506,209.699,419.349,210.052z"/>
<path fill="#FAFAFA" d="M423.187,210.342c-0.333-0.329-0.692-0.643-1.064-0.932c-0.422-0.26-0.874-0.491-1.336-0.683
	c0.972,0.191,1.826,0.771,2.341,1.615H423.187z"/>
<path fill="#FAFAFA" d="M426.112,210.474c0,0-0.412-0.422-0.977-0.883c-0.56-0.461-1.056-0.775-1.046-0.805
	c0.422,0.152,0.814,0.393,1.139,0.692C425.587,209.763,425.891,210.092,426.112,210.474z"/>
<path fill="#FAFAFA" d="M427.31,216.747c0,0-0.063-0.313-0.211-0.795c-0.201-0.623-0.476-1.208-0.835-1.737
	c-0.373-0.536-0.824-1.016-1.34-1.429c-0.392-0.319-0.652-0.48-0.642-0.491c0.25,0.108,0.495,0.25,0.716,0.422
	c0.521,0.403,0.972,0.884,1.335,1.438c0.363,0.54,0.633,1.144,0.805,1.776C427.227,216.192,427.29,216.477,427.31,216.747z"/>
<path fill="#FAFAFA" d="M430.295,214.406c-0.011-0.26-0.011-0.525,0-0.785c0.009-0.624-0.03-1.248-0.144-1.86
	c-0.108-0.614-0.279-1.208-0.521-1.777c-0.181-0.442-0.313-0.717-0.294-0.727c0.01-0.01,0,0,0.122,0.182
	c0.1,0.162,0.192,0.333,0.271,0.515c0.265,0.569,0.442,1.183,0.565,1.807c0.107,0.623,0.142,1.256,0.087,1.879
	c0.011,0.201,0.011,0.393,0,0.584C430.353,214.274,430.323,214.342,430.295,214.406z"/>
<path fill="#263238" d="M430.304,208.816c-2.925,0.996-5.487,2.827-7.396,5.247c0.191-0.412,0.441-0.805,0.751-1.134
	c1.409-1.728,3.259-3.039,5.36-3.779C429.43,208.978,429.861,208.865,430.304,208.816z"/>
<path fill="#263238" d="M425.813,207.367c-1.006,0.766-1.85,1.708-2.482,2.808c-0.556,1.125-0.889,2.351-0.978,3.598
	c-0.068-0.373-0.068-0.755,0-1.128c0.068-0.913,0.343-1.806,0.774-2.611c0.442-0.815,1.046-1.527,1.759-2.101
	C425.154,207.691,425.47,207.5,425.813,207.367z"/>
<path fill="#263238" d="M430.784,216.747c0,0-0.078-0.441-0.348-1.084c-0.363-0.834-0.908-1.571-1.6-2.155
	c-1.641-1.335-3.289-2.076-3.215-2.18c0.368,0.113,0.722,0.25,1.055,0.442c0.844,0.412,1.635,0.917,2.342,1.531
	c0.711,0.619,1.266,1.414,1.594,2.297C430.775,215.962,430.824,216.354,430.784,216.747z"/>
<path fill="#263238" d="M392.687,207.166c-0.6-0.049-1.203-0.157-1.776-0.329c-1.139-0.255-2.774-0.624-4.815-1.006
	c-5.306-1.016-10.685-1.639-16.085-1.879c-2.944-0.211-5.909,0.029-8.796,0.711c-2.321,0.624-4.5,1.699-6.4,3.176
	c-1.733,1.409-3.27,3.048-4.555,4.869c0.21-0.575,0.51-1.109,0.883-1.6c0.948-1.38,2.072-2.602,3.358-3.657
	c1.918-1.581,4.161-2.734,6.552-3.412c2.935-0.731,5.964-0.992,8.978-0.79c5.448,0.221,10.856,0.923,16.173,2.091
	c2.042,0.451,3.672,0.893,4.785,1.231C391.583,206.705,392.156,206.906,392.687,207.166z"/>
<path fill="#263238" d="M259.456,188.991c0.284-0.27,0.593-0.511,0.927-0.722c0.912-0.634,1.899-1.178,2.935-1.61
	c3.837-1.615,8.108-1.948,12.152-0.933c2.793,0.683,5.395,2.032,7.569,3.907c2.43,2.204,4.574,4.697,6.371,7.431
	c1.983,2.975,4.123,5.841,6.406,8.594c2.473,2.926,5.154,5.659,8.04,8.172c5.919,5.168,12.334,9.39,18.769,11.452
	c3.043,1.036,6.243,1.556,9.459,1.566c2.792,0.112,5.561-0.57,7.971-1.969c1.938-1.256,3.627-2.866,4.986-4.726
	c1.247-1.629,2.219-3.117,3.024-4.319l1.841-2.788c0.201-0.329,0.422-0.643,0.663-0.952c-0.147,0.363-0.338,0.702-0.56,1.036
	l-1.723,2.852c-0.76,1.237-1.708,2.685-2.944,4.403c-1.346,1.943-3.054,3.612-5.026,4.917c-2.493,1.478-5.346,2.219-8.241,2.141
	c-3.289,0.009-6.543-0.501-9.659-1.537c-6.607-2.111-13.1-6.322-19.069-11.52c-2.915-2.542-5.63-5.311-8.123-8.275
	c-2.292-2.773-4.423-5.669-6.415-8.673c-1.758-2.695-3.849-5.169-6.219-7.358c-2.091-1.85-4.604-3.165-7.318-3.862
	c-3.951-1.026-8.123-0.776-11.932,0.716C261.998,187.494,260.692,188.191,259.456,188.991z"/>
<path fill="#FAFAFA" d="M292.841,177.103h-0.948c-0.612,0-1.486,0.079-2.571,0.201c-5.659,0.653-11.048,2.734-15.682,6.047
	c-0.864,0.638-1.57,1.178-2.042,1.571l-0.722,0.604c0.835-0.814,1.729-1.57,2.685-2.252c4.614-3.367,10.038-5.458,15.722-6.062
	C290.466,177.103,291.654,177.059,292.841,177.103z"/>
<path fill="#FAFAFA" d="M314.35,190.139l-0.972,0.132c-0.643,0.079-1.561,0.221-2.685,0.452c-2.915,0.594-5.752,1.546-8.432,2.842
	c-2.685,1.301-5.208,2.906-7.51,4.815c-0.863,0.727-1.56,1.34-2.012,1.801l-0.722,0.682c0.835-0.913,1.729-1.767,2.681-2.562
	c2.292-1.919,4.805-3.559,7.5-4.864c2.694-1.291,5.551-2.233,8.486-2.798C311.891,190.38,313.113,190.218,314.35,190.139z"/>
<path fill="#FAFAFA" d="M313.697,220.649c-0.078-0.344-0.152-0.687-0.192-1.036c-0.117-0.947-0.146-1.89-0.088-2.847
	c0.221-3.146,1.134-6.194,2.685-8.938c1.576-2.714,3.437-5.247,5.566-7.559c1.591-1.806,2.686-2.872,2.686-2.872l-0.683,0.791
	l-1.89,2.145c-2.081,2.332-3.922,4.864-5.478,7.569c-1.56,2.724-2.503,5.748-2.778,8.874c-0.088,0.947-0.088,1.89,0,2.848
	c0,0.328,0.084,0.594,0.094,0.761L313.697,220.649z"/>
<path fill="#FAFAFA" d="M337.282,207.137c-0.152-0.333-0.271-0.683-0.363-1.036c-0.432-1.708-0.461-3.5-0.089-5.228
	c0.069-0.354,0.177-0.702,0.319-1.035c0,0-0.089,0.402-0.22,1.055c-0.319,1.708-0.281,3.48,0.112,5.178
	C337.179,206.734,337.301,207.127,337.282,207.137z"/>
<path fill="#FAFAFA" d="M341.414,223.452c-0.765-0.472-1.481-1.016-2.144-1.61c-3.318-2.832-5.659-6.641-6.705-10.886
	c-0.222-0.874-0.368-1.777-0.442-2.68c0,0,0,0.25,0.133,0.712c0.137,0.452,0.201,1.104,0.402,1.899
	c1.084,4.191,3.396,7.971,6.63,10.847c0.486,0.432,0.997,0.845,1.522,1.237C341.212,223.3,341.414,223.452,341.414,223.452z"/>
<path fill="#FAFAFA" d="M359.497,204.928c0,0-0.683-0.314-1.738-0.928c-1.369-0.805-2.675-1.699-3.913-2.685
	c-1.247-0.981-2.415-2.061-3.519-3.205c-0.834-0.883-1.335-1.487-1.335-1.487l0.383,0.373l0.992,1.045
	c1.109,1.124,2.282,2.18,3.509,3.166c1.247,0.962,2.542,1.86,3.892,2.685l1.247,0.731L359.497,204.928z"/>
<path fill="#FAFAFA" d="M372.341,203.146c0,0,0-0.191,0-0.521c0-0.333,0-0.967-0.068-1.448c0-1.228-0.192-2.896-0.423-4.736
	c-0.231-1.841-0.584-3.5-0.844-4.673l-0.324-1.409c-0.078-0.334-0.108-0.521-0.108-0.521s0,0.167,0.163,0.5
	c0.157,0.344,0.231,0.805,0.377,1.335c0.285,1.188,0.614,2.847,0.869,4.697c0.211,1.576,0.339,3.156,0.388,4.741
	c0,0.604,0,1.1,0,1.448C372.371,202.916,372.341,203.146,372.341,203.146z"/>
<path fill="#FAFAFA" d="M389.039,193.958c0.02,0.152,0.02,0.304,0,0.441c0,0.413-0.078,0.805-0.112,1.179
	c-0.118,1.005-0.319,2.38-0.633,3.892c-0.3,1.497-0.662,2.852-0.963,3.819c-0.122,0.358-0.24,0.731-0.363,1.133
	s-0.161,0.402-0.161,0.402c0.02-0.152,0.063-0.289,0.112-0.421c0.108-0.394,0.211-0.786,0.319-1.134
	c0.265-0.967,0.613-2.322,0.928-3.823c0.309-1.497,0.52-2.862,0.672-3.868c0-0.374,0.089-0.766,0.152-1.179L389.039,193.958z"/>
<path fill="#FAFAFA" d="M400.397,205.046c0.083-0.731,0.212-1.468,0.394-2.179c0.122-0.736,0.288-1.458,0.524-2.165
	c-0.093,0.736-0.222,1.467-0.393,2.184C400.791,203.617,400.618,204.344,400.397,205.046z"/>
<path fill="#FAFAFA" d="M419.196,211.289c0,0,0-0.343,0.098-0.893c0.113-0.564,0.113-1.35,0.123-2.204c0-0.594,0-1.236,0-2.199
	v-0.678c-0.01-0.078-0.01-0.157,0-0.24c0.049,0.305,0.078,0.614,0.078,0.918c0,0.56,0,1.335,0,2.209
	c-0.009,0.736-0.067,1.468-0.167,2.203C419.305,210.695,419.256,210.995,419.196,211.289z"/>
<path fill="#455A64" d="M422.794,215.653c-1.447-5.832-7.436-9.591-13.399-10.529c-5.958-0.932-11.981,0.285-17.945,1.051
	c-5.959,0.761-12.329,0.952-17.679-1.821c-1.689,3.146-2.542,6.686-2.484,10.254h3.137c0.653,4.53,4.805,8.04,9.258,8.968
	c4.466,0.922,7.411,1.001,11.593-0.825c4.402-1.934,10.091-4.835,14.415-6.356c4.311-1.517,9.085-2.272,13.4-0.844"/>
<path fill="#263238" d="M376.896,205.752c-0.151,0.432-0.334,0.854-0.545,1.257c-0.422,0.992-0.78,2.007-1.085,3.043
	c-0.299,1.056-0.52,2.13-0.652,3.215c-0.01,0.446-0.059,0.898-0.152,1.34c-0.059-0.441-0.059-0.894,0-1.34
	c0.074-1.104,0.265-2.209,0.584-3.274c0.294-1.065,0.692-2.101,1.198-3.097C376.405,206.494,376.627,206.101,376.896,205.752z"/>
<path fill="#263238" d="M374.673,212.064c-0.55,0-1.104-0.043-1.649-0.152c-0.56-0.019-1.115-0.093-1.655-0.21
	c0.55-0.132,1.124-0.132,1.689,0C373.618,211.702,374.172,211.819,374.673,212.064z"/>
<path fill="#263238" d="M375.351,208.442c0,0-0.624-0.383-1.438-0.672c-0.815-0.29-1.531-0.31-1.531-0.393
	C373.49,207.186,374.614,207.588,375.351,208.442z"/>
<path fill="#263238" d="M381.579,206.523h0.938c0.604,0,1.497,0,2.686,0c3.282-0.029,6.552-0.373,9.777-1.006
	c4.844-1.011,9.841-1.143,14.749-0.402c2.916,0.476,5.688,1.581,8.123,3.259c2.621,1.86,4.579,4.516,5.565,7.569l0.084,0.294
	l-0.285-0.132c-1.257-0.614-2.62-0.987-4.02-1.095c-3.396-0.083-6.773,0.53-9.939,1.777c-2.999,1.026-5.943,2.224-8.811,3.578
	c-1.335,0.643-2.68,1.34-4.02,1.851c-1.267,0.594-2.582,1.065-3.941,1.438c-2.46,0.584-5.002,0.672-7.505,0.29
	c-2.062-0.29-4.034-1.046-5.782-2.18c-1.295-0.884-2.399-2.042-3.226-3.377c-0.514-0.834-0.917-1.737-1.197-2.685
	c-0.181-0.653-0.23-1.006-0.23-1.006c0.319,1.286,0.835,2.523,1.518,3.662c0.834,1.315,1.929,2.439,3.225,3.293
	c1.732,1.129,3.681,1.86,5.723,2.135c2.474,0.359,4.986,0.25,7.407-0.333c1.35-0.354,2.655-0.834,3.902-1.438
	c1.335-0.584,2.684-1.208,4.02-1.851c2.876-1.365,5.821-2.582,8.835-3.618c3.195-1.256,6.616-1.87,10.053-1.801
	c1.438,0.123,2.847,0.496,4.152,1.129l-0.192,0.162c-0.977-2.999-2.896-5.61-5.467-7.431c-2.415-1.659-5.159-2.763-8.04-3.225
	c-4.859-0.746-9.812-0.624-14.628,0.348c-3.229,0.624-6.513,0.938-9.812,0.918C382.855,206.617,381.579,206.523,381.579,206.523z"/>
<path fill="#FAFAFA" d="M381.368,222.829c-0.089-0.202-0.168-0.403-0.231-0.614c-0.182-0.565-0.328-1.134-0.451-1.718
	c-0.795-3.862-0.51-7.882,0.824-11.588c0.202-0.554,0.423-1.099,0.683-1.64c0.083-0.211,0.191-0.402,0.324-0.574
	c0,0-0.363,0.864-0.825,2.282c-0.604,1.85-0.986,3.76-1.128,5.689c-0.128,1.938-0.02,3.882,0.323,5.792
	C381.137,221.935,381.422,222.829,381.368,222.829z"/>
<path fill="#FAFAFA" d="M392.972,214.936c0.107,0.373,0.182,0.746,0.211,1.129c0.108,0.692,0.31,1.648,0.584,2.685
	c0.54,2.081,1.084,3.745,1.001,3.779c-0.191-0.334-0.338-0.697-0.441-1.056c-0.241-0.677-0.56-1.6-0.834-2.685
	c-0.241-0.874-0.413-1.782-0.511-2.685C392.917,215.722,392.907,215.329,392.972,214.936z"/>
<path fill="#FAFAFA" d="M391.352,210.396c0.088,0.721,0.143,1.458,0.152,2.179c0.088,1.197,0.289,2.14,0.211,2.169
	C391.189,213.361,391.071,211.854,391.352,210.396z"/>
<path fill="#FAFAFA" d="M394.198,205.719c0.079,0-0.285,0.898-0.486,2.012c-0.201,1.114-0.19,2.052-0.269,2.052
	c-0.183-0.697-0.183-1.418,0-2.101C393.521,206.965,393.786,206.292,394.198,205.719z"/>
<path fill="#FAFAFA" d="M403.416,208.325c-0.824-0.918-1.129-2.184-0.824-3.377c0.088,0,0,0.805,0.25,1.728
	C403.103,207.598,403.515,208.286,403.416,208.325z"/>
<path fill="#FAFAFA" d="M410.651,215.854c-0.29-0.324-0.55-0.677-0.762-1.055c-0.563-0.898-1.061-1.831-1.467-2.808
	c-0.428-0.962-0.756-1.968-1.026-2.984c-0.132-0.432-0.201-0.883-0.221-1.335c0.167,0.402,0.31,0.81,0.422,1.237
	c0.241,0.761,0.599,1.807,1.085,2.936c0.48,1.124,0.972,2.101,1.336,2.812C410.269,215.029,410.479,215.432,410.651,215.854z"/>
<path fill="#FAFAFA" d="M412.664,206.121c0,0.074-0.192,0.294-0.423,0.604c-0.221,0.314-0.363,0.594-0.441,0.564
	c-0.084-0.03,0-0.383,0.21-0.736C412.231,206.195,412.624,206.033,412.664,206.121z"/>
<path fill="#FAFAFA" d="M423.265,216.114c-0.138-0.113-0.26-0.211-0.388-0.344c-1.741-1.537-3.921-2.469-6.232-2.685
	c-2.675-0.29-5.371,0-7.913,0.859c-3.106,1.075-6.14,2.331-9.096,3.745c-2.959,1.419-6.135,2.327-9.389,2.685
	c-2.704,0.241-5.428,0-8.045-0.692c-1.757-0.461-3.446-1.133-5.036-2.002c-0.559-0.31-0.971-0.58-1.256-0.761l-0.422-0.285
	l0.441,0.265c0.285,0.182,0.717,0.432,1.267,0.722c3.98,2.12,8.506,3.058,12.996,2.685c3.26-0.373,6.426-1.266,9.391-2.685
	c2.954-1.429,6.002-2.685,9.11-3.76c2.562-0.854,5.276-1.144,7.96-0.844c1.807,0.23,3.54,0.864,5.075,1.851
	C422.293,215.23,422.804,215.643,423.265,216.114z"/>
<path fill="#FAFAFA" d="M400.913,209.792c0,0-0.334,0.162-0.958,0.422c-0.622,0.259-1.496,0.603-2.684,0.996
	c-2.936,1.012-6.033,1.527-9.136,1.517c-3.106-0.093-6.184-0.613-9.148-1.541c-2.282-0.653-3.671-1.153-3.671-1.153l1.006,0.28
	l2.686,0.785c2.954,0.903,6.021,1.409,9.119,1.497c3.092,0.01,6.169-0.48,9.115-1.468c1.123-0.373,2.021-0.692,2.684-0.952
	L400.913,209.792z"/>
<path fill="#FAFAFA" d="M414.514,208.374l-0.343-0.21c-0.301-0.211-0.624-0.393-0.957-0.565c-1.193-0.643-2.494-1.094-3.829-1.335
	c-1.968-0.363-3.98-0.432-5.969-0.23c-2.273,0.211-4.727,0.721-7.309,1.208c-4.412,0.883-8.947,1.011-13.4,0.368
	c-3.431-0.481-5.501-1.001-5.501-1.001l1.482,0.26c0.933,0.182,2.312,0.422,4.019,0.633c4.453,0.624,8.988,0.481,13.4-0.402
	c2.582-0.481,5.056-0.997,7.329-1.208c2.017-0.221,4.049-0.152,6.051,0.221c1.335,0.24,2.631,0.692,3.828,1.34
	C413.738,207.741,414.141,208.04,414.514,208.374z"/>
<path fill="#263238" d="M422.956,215.413c-1.065-1.478-2.302-2.837-3.691-4.025c-1.526-1.247-3.273-2.179-5.153-2.753
	c-2.303-0.702-4.747-0.854-7.117-0.452c-2.385,0.471-4.658,1.389-6.704,2.685c-1.935,1.125-3.672,2.219-5.238,2.965
	c-1.228,0.633-2.522,1.075-3.872,1.335c-0.363,0.063-0.731,0.103-1.095,0.112c-0.25,0-0.393,0-0.393,0
	c1.791-0.363,3.529-0.977,5.149-1.811c1.496-0.781,3.186-1.899,5.134-3.063c2.091-1.379,4.422-2.331,6.877-2.817
	c4.555-0.805,9.217,0.496,12.717,3.52c1.026,0.903,1.929,1.938,2.686,3.087C422.543,214.548,422.774,214.956,422.956,215.413z"/>
<path fill="#263238" d="M404.339,208.575c-2.582,1.114-5.359,1.728-8.172,1.821c-2.793,0.319-5.63,0.098-8.354-0.643
	c0-0.202,3.74,0.279,8.295,0C400.668,209.468,404.29,208.374,404.339,208.575z"/>
<path fill="#FAFAFA" d="M397.703,204.462l-1.498-0.643c-1.005-0.422-2.463-1.026-4.383-1.718
	c-5.409-2.042-11.098-3.214-16.865-3.499c-3.981-0.128-7.941,0.383-11.75,1.531c-4.402,1.296-8.418,3.646-11.701,6.842
	c-3.49,3.338-6.415,7.559-10.416,11.009c-2.032,1.777-4.442,3.054-7.048,3.741c-2.724,0.579-5.546,0.422-8.173-0.486
	c-2.621-0.884-5.055-2.249-7.185-4.02c-2.051-1.728-3.902-3.677-5.507-5.832c-3.221-4.172-5.782-8.56-8.717-12.403
	c-2.715-3.677-5.822-7.044-9.277-10.043c-3.019-2.601-6.425-4.712-10.102-6.262c-5.34-2.283-11.249-2.862-16.929-1.689
	c-1.53,0.344-3.028,0.844-4.457,1.487l-1.467,0.737l1.458-0.766c1.429-0.653,2.925-1.164,4.457-1.517
	c5.688-1.198,11.617-0.623,16.978,1.649c3.686,1.537,7.117,3.656,10.131,6.273c3.499,2.984,6.656,6.351,9.39,10.052
	c2.936,3.829,5.488,8.241,8.717,12.394c1.594,2.13,3.435,4.079,5.477,5.801c2.11,1.777,4.54,3.146,7.156,4.02
	c2.582,0.883,5.37,1.045,8.04,0.481c2.587-0.682,4.978-1.949,6.99-3.711c4.02-3.416,6.916-7.637,10.421-10.994
	c3.298-3.205,7.327-5.571,11.746-6.867c3.829-1.153,7.818-1.669,11.818-1.507c5.758,0.27,11.442,1.448,16.827,3.47
	C395.666,203.47,397.703,204.462,397.703,204.462z"/>
<path fill="#FAFAFA" d="M331.932,208.374c-0.702,0.059-1.414,0.03-2.111-0.078c-1.928-0.334-3.759-1.08-5.365-2.204
	c-2.326-1.688-4.333-3.779-5.934-6.16c-1.929-2.926-4-5.743-6.218-8.447c-4.182-4.805-9.208-8.805-14.829-11.79
	c-1.698-0.893-3.46-1.698-5.247-2.41l-1.934-0.736c0,0,0.727,0.221,2.012,0.692c1.801,0.697,3.559,1.487,5.267,2.385
	c5.649,2.965,10.696,6.955,14.887,11.78c2.224,2.714,4.295,5.527,6.224,8.452c1.59,2.386,3.578,4.467,5.879,6.165
	c1.581,1.114,3.367,1.88,5.267,2.219c0.516,0.083,1.035,0.123,1.562,0.142L331.932,208.374z"/>
<path fill="#FAFAFA" d="M393.644,197.055c-0.143-0.069-0.28-0.152-0.422-0.23c-0.25-0.152-0.644-0.393-1.158-0.653
	c-1.424-0.805-2.916-1.512-4.432-2.111c-10.171-4.143-21.602-3.779-31.493,0.972c-1.478,0.707-2.915,1.497-4.294,2.385
	c-0.491,0.309-0.854,0.579-1.124,0.731l-0.393,0.251c0,0,0.516-0.393,1.477-1.036c1.38-0.893,2.808-1.708,4.286-2.42
	c9.9-4.834,21.39-5.198,31.58-0.996c1.521,0.624,2.999,1.34,4.428,2.15C393.108,196.643,393.644,197.055,393.644,197.055z"/>
<path fill="#FAFAFA" d="M366.403,203.023c0,0-0.069-0.186-0.163-0.53c-0.087-0.344-0.25-0.834-0.441-1.438
	c-0.535-1.566-1.168-3.097-1.89-4.584c-0.747-1.477-1.591-2.906-2.533-4.26c-0.364-0.525-0.653-0.938-0.874-1.228
	c-0.211-0.279-0.324-0.442-0.324-0.442c0.451,0.511,0.883,1.045,1.276,1.605c1.943,2.705,3.441,5.704,4.432,8.879
	C366.088,201.679,366.261,202.352,366.403,203.023z"/>
<path fill="#FAFAFA" d="M380.627,190.571c0,0,0.078,0.731,0.107,1.949c0.011,1.58-0.088,3.146-0.319,4.707
	c-0.23,1.556-0.563,3.107-1.024,4.604c-0.364,1.153-0.653,1.84-0.653,1.84s0-0.172,0.147-0.496c0.152-0.319,0.284-0.923,0.422-1.335
	c0.427-1.517,0.746-3.058,0.977-4.604c0.221-1.55,0.344-3.116,0.354-4.677c0-0.481,0-0.952,0-1.434
	C380.627,190.64,380.627,190.571,380.627,190.571z"/>
<path fill="#FAFAFA" d="M349.807,213.311c-0.544-0.304-1.065-0.633-1.57-0.996c-1.217-0.864-2.36-1.841-3.416-2.896
	c-1.065-1.045-2.051-2.179-2.925-3.386c-0.364-0.516-0.683-1.036-0.997-1.581c0,0,0.123,0.152,0.29,0.422
	c0.171,0.265,0.446,0.643,0.775,1.109c0.874,1.203,1.841,2.331,2.886,3.387c1.045,1.055,2.18,2.037,3.377,2.925l1.114,0.781
	L349.807,213.311z"/>
<path fill="#FAFAFA" d="M329.07,209.14c-0.143-0.442-0.245-0.889-0.325-1.34c-0.191-1.134-0.24-2.302-0.172-3.446
	c0.064-1.158,0.26-2.302,0.594-3.411c0.133-0.451,0.305-0.903,0.491-1.335c-0.03,0.133-0.059,0.25-0.108,0.383
	c-0.079,0.22-0.182,0.564-0.29,0.996c-0.294,1.104-0.486,2.238-0.555,3.387c-0.069,1.134-0.019,2.283,0.127,3.416
	c0.074,0.442,0.123,0.795,0.182,1.036C329.035,208.928,329.06,209.026,329.07,209.14z"/>
<path fill="#FAFAFA" d="M328.997,226.51c-0.374-0.707-0.702-1.438-0.992-2.174c-0.707-1.787-1.255-3.647-1.649-5.537
	c-0.383-1.89-0.584-3.809-0.624-5.732c-0.009-0.791,0.01-1.596,0.08-2.381v0.702c0,0.403,0,1.006,0,1.743
	c0.068,1.919,0.289,3.829,0.662,5.708c0.383,1.88,0.917,3.731,1.6,5.517c0.27,0.687,0.491,1.237,0.652,1.61L328.997,226.51z"/>
<path fill="#FAFAFA" d="M344.747,198.592c0.064,0.354,0.152,0.696,0.246,1.045c0.211,0.555,0.531,0.927,0.491,0.947
	c-0.29-0.231-0.5-0.555-0.623-0.908C344.717,199.338,344.668,198.955,344.747,198.592z"/>
<path fill="#FAFAFA" d="M318.586,193.575l-0.869,0.486c-0.559,0.29-1.335,0.751-2.341,1.335c-5.104,3.097-9.591,7.127-13.199,11.893
	c-0.682,0.903-1.217,1.678-1.564,2.199c-0.355,0.525-0.584,0.815-0.584,0.815c0.633-1.055,1.325-2.082,2.081-3.063
	c3.568-4.815,8.059-8.87,13.218-11.922C316.382,194.684,317.467,194.1,318.586,193.575z"/>
<path fill="#FAFAFA" d="M302.462,180.126l-0.834,0.201c-0.555,0.123-1.341,0.324-2.283,0.584c-2.494,0.692-4.918,1.595-7.27,2.685
	c-2.331,1.075-4.574,2.351-6.705,3.789c-0.815,0.56-1.467,1.036-1.909,1.335l-0.692,0.49c0,0,0.922-0.8,2.552-1.938
	c2.12-1.468,4.363-2.753,6.705-3.848c2.351-1.095,4.806-1.993,7.308-2.685C301.245,180.317,302.462,180.126,302.462,180.126z"/>
<path fill="#FAFAFA" d="M411.849,203.75c-0.01,0.279-0.049,0.564-0.133,0.834c-0.039,0.28-0.127,0.54-0.27,0.795
	c0-0.285,0.049-0.565,0.143-0.834C411.618,204.261,411.707,203.991,411.849,203.75z"/>
<path fill="#FFBE9D" d="M472.702,203.146c0,0,6.062,1.257,8.639,1.821c0.844,0.191,1.697,0,2.542,0.201
	c3.711,0.614,7.5,0.54,11.187-0.201c2.552-0.938,2.685,2.332-0.089,3.741c-1.389,0.77-2.905,1.295-4.461,1.565l6.704,5.36
	c0.339,0.28,0.569,0.673,0.644,1.114l1.697,11.79c0.212,1.006-0.362,2.012-1.34,2.331c-0.48,0.246-1.084,0.054-1.324-0.441
	c0,0,0-0.01-0.011-0.01l0.192,1.58c0.19,1.134-0.575,2.209-1.699,2.401c-1.139,0.191-2.214-0.57-2.404-1.698l0,0
	c0-0.03,0-0.069,0-0.108l-2.341,1.334c0,0-1.558,1.61-3.226-0.633c-1.34-1.851-5.542-9.199-5.542-9.199s-17.659-7.436-17.42-10.416
	L472.702,203.146z"/>
<path fill="#EB996E" d="M493.031,232.68c-0.234-0.933-0.401-1.89-0.484-2.857c-0.271-1.737-0.785-4.191-1.124-6.872
	c-0.241-1.34-0.555-2.616-0.845-3.671c-0.182-0.461-0.516-0.854-0.958-1.095l-1.236-0.785c-0.844-0.461-1.634-1.035-2.361-1.688
	c0.948,0.299,1.852,0.722,2.686,1.256l1.266,0.712c0.564,0.285,1.016,0.755,1.257,1.34c0.383,1.247,0.692,2.513,0.923,3.789
	c0.363,2.685,0.776,5.134,0.938,6.926C493.229,230.731,493.199,231.712,493.031,232.68z"/>
<path fill="#EB996E" d="M496.938,230.407c-0.279,0-0.722-4.23-1.806-9.379c-0.133-1.173-0.516-2.312-1.128-3.323
	c-0.673-0.727-1.395-1.409-2.171-2.042c-0.515-0.422-1.055-0.815-1.639-1.148c-0.423-0.231-0.673-0.28-0.673-0.339
	c0-0.063,0.29-0.083,0.781,0.079c0.647,0.25,1.257,0.594,1.82,1.016c0.844,0.594,1.629,1.257,2.342,1.998
	c0.735,1.08,1.196,2.316,1.34,3.612c0.48,2.209,0.824,4.442,1.006,6.705C496.959,228.518,496.998,229.465,496.938,230.407z"/>
<path fill="#EB996E" d="M482.494,219.25c0.814,0.24,1.59,0.614,2.303,1.084l1.128,0.614c0.501,0.211,0.963,0.535,1.335,0.933
	c0.364,0.457,0.623,0.987,0.756,1.561c0.157,0.555,0.328,1.114,0.521,1.679c0.957,2.733,1.698,5.556,2.214,8.413
	c-1.179-2.641-2.146-5.389-2.887-8.182l-0.495-1.679c-0.099-0.481-0.31-0.942-0.599-1.335c-0.305-0.344-0.667-0.633-1.08-0.834
	l-1.065-0.697C483.844,220.385,483.117,219.864,482.494,219.25z"/>
<path fill="#EB996E" d="M482.955,206.494c0.083-0.271,2.587,0.702,5.359,2.331c2.774,1.62,4.865,3.308,4.728,3.49
	c-0.152,0.171-2.272-1.34-5.07-2.887l-3.549-2.062C483.903,207.127,483.412,206.848,482.955,206.494z"/>
</svg>
