<?xml version="1.0" encoding="utf-8"?>
<!-- Generator: Adobe Illustrator 12.0.0, SVG Export Plug-In . SVG Version: 6.00 Build 51448)  -->
<!DOCTYPE svg PUBLIC "-//W3C//DTD SVG 1.1//EN" "http://www.w3.org/Graphics/SVG/1.1/DTD/svg11.dtd" [
	<!ENTITY ns_svg "http://www.w3.org/2000/svg">
	<!ENTITY ns_xlink "http://www.w3.org/1999/xlink">
]>
<svg  version="1.1" id="レイヤー_1" xmlns="&ns_svg;" xmlns:xlink="&ns_xlink;" width="109.078" height="9.901"
	 viewBox="0 0 109.078 9.901" overflow="visible" enable-background="new 0 0 109.078 9.901" xml:space="preserve">
<circle fill="#C99E35" cx="4.2" cy="5.155" r="4.2"/>
<circle fill="#C99E35" cx="8.527" cy="7.191" r="1.719"/>
<circle fill="#C99E35" cx="4.2" cy="5.155" r="4.2"/>
<circle fill="#C99E35" cx="8.527" cy="7.191" r="1.719"/>
<path fill="#C99E35" d="M18.143,8.114V7.853c0.174-0.004,0.315-0.017,0.423-0.038c0.108-0.021,0.191-0.06,0.251-0.117
	c0.06-0.058,0.1-0.135,0.12-0.234s0.031-0.23,0.031-0.395V3.866c0-0.16-0.008-0.29-0.024-0.388
	c-0.016-0.099-0.048-0.176-0.096-0.233c-0.048-0.057-0.118-0.096-0.209-0.117c-0.092-0.021-0.211-0.035-0.357-0.044V2.822h2.412
	c0.413,0,0.794,0.069,1.145,0.206c0.351,0.138,0.653,0.328,0.907,0.571c0.254,0.243,0.453,0.531,0.595,0.866
	s0.213,0.699,0.213,1.093c0,0.376-0.066,0.721-0.199,1.034c-0.133,0.314-0.32,0.583-0.56,0.808
	c-0.241,0.224-0.528,0.399-0.863,0.525c-0.334,0.126-0.701,0.189-1.1,0.189H18.143z M19.807,3.159c-0.078,0-0.117,0.039-0.117,0.117
	v3.718c0,0.522,0.341,0.783,1.024,0.783c0.628,0,1.109-0.187,1.443-0.56c0.334-0.373,0.501-0.922,0.501-1.646
	c0-0.38-0.046-0.719-0.137-1.017c-0.092-0.298-0.224-0.55-0.395-0.756c-0.172-0.207-0.379-0.364-0.623-0.475
	c-0.243-0.11-0.518-0.165-0.825-0.165H19.807z"/>
<path fill="#C99E35" d="M28.92,7.475c-0.389,0.472-0.873,0.708-1.45,0.708c-0.271,0-0.516-0.045-0.736-0.134
	c-0.22-0.089-0.409-0.216-0.567-0.378c-0.158-0.162-0.281-0.357-0.368-0.584s-0.13-0.478-0.13-0.752c0-0.28,0.045-0.539,0.137-0.777
	s0.221-0.442,0.388-0.612c0.167-0.169,0.367-0.302,0.598-0.398c0.231-0.096,0.484-0.145,0.759-0.145
	c0.444,0,0.788,0.121,1.031,0.361c0.243,0.241,0.365,0.585,0.365,1.035c0,0.064-0.013,0.103-0.038,0.117
	c-0.026,0.014-0.084,0.021-0.176,0.021h-2.261c-0.009,0.037-0.016,0.082-0.021,0.134s-0.007,0.111-0.007,0.175
	c0,0.238,0.029,0.455,0.086,0.649s0.14,0.361,0.248,0.499c0.107,0.137,0.235,0.244,0.385,0.319c0.148,0.076,0.315,0.113,0.498,0.113
	c0.193,0,0.371-0.042,0.536-0.127s0.334-0.224,0.509-0.416L28.92,7.475z M27.786,5.619c0.091,0,0.165-0.002,0.22-0.007
	c0.055-0.005,0.096-0.014,0.124-0.028c0.028-0.014,0.046-0.033,0.055-0.058c0.009-0.025,0.014-0.058,0.014-0.1
	c0-0.211-0.067-0.379-0.203-0.505c-0.135-0.126-0.319-0.189-0.553-0.189c-0.495,0-0.802,0.295-0.921,0.887H27.786L27.786,5.619z"/>
<path fill="#C99E35" d="M31.236,8.114h-0.151V6.932h0.172c0.179,0.646,0.504,0.969,0.976,0.969c0.183,0,0.329-0.045,0.437-0.134
	c0.107-0.089,0.161-0.226,0.161-0.409c0-0.069-0.01-0.127-0.031-0.175s-0.06-0.099-0.117-0.151c-0.057-0.053-0.137-0.113-0.24-0.182
	s-0.24-0.156-0.409-0.261c-0.156-0.096-0.291-0.185-0.405-0.268c-0.115-0.082-0.211-0.166-0.289-0.25
	c-0.078-0.085-0.136-0.175-0.175-0.271s-0.059-0.208-0.059-0.337c0-0.156,0.026-0.299,0.079-0.43
	c0.053-0.13,0.125-0.242,0.217-0.333c0.091-0.092,0.199-0.164,0.323-0.217s0.259-0.079,0.406-0.079c0.124,0,0.252,0.02,0.385,0.059
	s0.25,0.09,0.351,0.154l0.137-0.144h0.131v0.99h-0.179c-0.101-0.279-0.211-0.479-0.33-0.598s-0.266-0.178-0.44-0.178
	c-0.156,0-0.281,0.041-0.375,0.124c-0.094,0.082-0.141,0.197-0.141,0.344c0,0.078,0.013,0.146,0.038,0.203
	c0.025,0.057,0.066,0.113,0.121,0.168c0.055,0.055,0.125,0.111,0.21,0.168c0.084,0.057,0.187,0.122,0.306,0.196
	c0.197,0.124,0.366,0.233,0.505,0.33c0.14,0.097,0.252,0.191,0.34,0.285c0.087,0.094,0.151,0.191,0.192,0.292
	c0.042,0.102,0.062,0.216,0.062,0.344c0,0.325-0.105,0.581-0.316,0.766c-0.21,0.186-0.488,0.278-0.832,0.278
	c-0.357,0-0.665-0.103-0.921-0.309L31.236,8.114z"/>
<path fill="#C99E35" d="M36.707,7.021c0,0.179,0.008,0.322,0.024,0.43s0.047,0.192,0.093,0.254s0.11,0.104,0.192,0.127
	c0.083,0.023,0.193,0.037,0.33,0.042v0.24h-1.972V7.873c0.137-0.004,0.25-0.02,0.336-0.044s0.155-0.066,0.203-0.124
	s0.081-0.138,0.096-0.241c0.016-0.103,0.024-0.235,0.024-0.396V6.189c0-0.266-0.003-0.484-0.01-0.656
	c-0.007-0.172-0.02-0.29-0.038-0.354c-0.023-0.105-0.076-0.178-0.158-0.217c-0.083-0.039-0.239-0.058-0.468-0.058v-0.24l1.347-0.262
	V7.021L36.707,7.021z M35.917,3.007c0-0.119,0.042-0.22,0.124-0.302c0.083-0.083,0.184-0.124,0.303-0.124s0.22,0.042,0.302,0.124
	c0.083,0.082,0.124,0.183,0.124,0.302s-0.041,0.22-0.124,0.302c-0.082,0.083-0.183,0.124-0.302,0.124s-0.22-0.041-0.303-0.124
	C35.958,3.228,35.917,3.126,35.917,3.007z"/>
<path fill="#C99E35" d="M40.363,7.44c0.11,0.009,0.21,0.018,0.302,0.027c0.091,0.009,0.182,0.018,0.271,0.028
	c0.089,0.009,0.179,0.021,0.268,0.034c0.089,0.014,0.187,0.028,0.292,0.042c0.33,0.05,0.595,0.178,0.794,0.381
	c0.199,0.204,0.298,0.459,0.298,0.767c0,0.385-0.152,0.678-0.457,0.879C41.828,9.8,41.387,9.9,40.81,9.9
	c-0.256,0-0.491-0.022-0.705-0.068c-0.213-0.046-0.395-0.111-0.546-0.196c-0.152-0.085-0.27-0.187-0.354-0.306
	c-0.085-0.119-0.128-0.25-0.128-0.392c0-0.096,0.017-0.186,0.048-0.268c0.032-0.083,0.076-0.155,0.13-0.216
	c0.055-0.062,0.121-0.111,0.196-0.147c0.076-0.037,0.154-0.055,0.237-0.055c0.155,0,0.295,0.048,0.419,0.144
	c-0.124,0.027-0.225,0.095-0.302,0.203c-0.078,0.108-0.117,0.23-0.117,0.368c0,0.202,0.099,0.357,0.299,0.467
	c0.2,0.11,0.482,0.165,0.849,0.165c0.783,0,1.175-0.24,1.175-0.722c0-0.183-0.062-0.335-0.186-0.457
	c-0.124-0.121-0.271-0.193-0.439-0.216c-0.11-0.014-0.224-0.029-0.341-0.045c-0.117-0.016-0.231-0.031-0.343-0.044
	s-0.216-0.025-0.313-0.034c-0.096-0.009-0.174-0.019-0.233-0.028c-0.257-0.027-0.451-0.096-0.584-0.206s-0.199-0.261-0.199-0.454
	c0-0.161,0.066-0.302,0.199-0.426c0.133-0.124,0.3-0.202,0.501-0.234V6.705c-0.101-0.042-0.194-0.1-0.282-0.175
	c-0.087-0.076-0.162-0.162-0.224-0.258c-0.062-0.096-0.11-0.201-0.147-0.313c-0.037-0.113-0.055-0.228-0.055-0.347
	c0-0.174,0.033-0.335,0.1-0.481c0.066-0.147,0.16-0.274,0.281-0.382c0.122-0.107,0.265-0.192,0.43-0.254
	c0.165-0.062,0.346-0.093,0.543-0.093c0.201,0,0.392,0.031,0.57,0.093c0.179,0.062,0.332,0.153,0.46,0.272
	c0.156-0.128,0.293-0.221,0.412-0.279c0.12-0.057,0.231-0.085,0.337-0.085c0.165,0,0.297,0.038,0.395,0.113
	c0.099,0.076,0.148,0.177,0.148,0.306c0,0.078-0.026,0.14-0.08,0.186c-0.052,0.046-0.117,0.069-0.195,0.069
	c-0.064,0-0.117-0.011-0.158-0.034c-0.042-0.023-0.08-0.047-0.114-0.072c-0.034-0.025-0.07-0.049-0.107-0.072
	c-0.036-0.023-0.082-0.034-0.137-0.034c-0.11,0-0.222,0.039-0.336,0.117c0.11,0.169,0.165,0.383,0.165,0.639
	c0,0.39-0.121,0.695-0.364,0.917c-0.243,0.222-0.607,0.352-1.092,0.388c-0.279,0.023-0.475,0.053-0.584,0.09
	c-0.11,0.036-0.165,0.103-0.165,0.199c0,0.073,0.041,0.127,0.124,0.161C40.082,7.409,40.203,7.432,40.363,7.44z M40.741,6.636
	c0.192,0,0.342-0.087,0.45-0.261s0.161-0.419,0.161-0.735c0-0.312-0.053-0.553-0.161-0.725s-0.26-0.257-0.457-0.257
	c-0.197,0-0.354,0.087-0.471,0.261c-0.117,0.174-0.175,0.413-0.175,0.715s0.06,0.545,0.179,0.729S40.544,6.636,40.741,6.636z"/>
<path fill="#C99E35" d="M45.834,7.035c0,0.188,0.005,0.335,0.014,0.443c0.009,0.108,0.033,0.19,0.073,0.248
	c0.039,0.058,0.096,0.095,0.172,0.114c0.075,0.018,0.179,0.032,0.313,0.041v0.233h-1.801V7.88c0.128-0.009,0.23-0.023,0.306-0.042
	c0.075-0.018,0.134-0.055,0.175-0.11c0.041-0.055,0.067-0.133,0.079-0.233c0.012-0.101,0.018-0.238,0.018-0.413V6.169
	c0-0.545-0.014-0.877-0.041-0.997c-0.014-0.06-0.031-0.109-0.052-0.148c-0.021-0.039-0.052-0.068-0.093-0.089
	c-0.042-0.021-0.094-0.034-0.158-0.041c-0.064-0.007-0.147-0.01-0.248-0.01v-0.22l1.1-0.261l0.083,0.68H45.8
	c0.174-0.215,0.378-0.383,0.612-0.502c0.233-0.119,0.488-0.178,0.762-0.178c0.211,0,0.404,0.034,0.578,0.103
	c0.173,0.068,0.307,0.163,0.398,0.282c0.078,0.105,0.132,0.242,0.165,0.409c0.032,0.167,0.048,0.397,0.048,0.691v1.148
	c0,0.188,0.005,0.335,0.018,0.443c0.011,0.108,0.035,0.19,0.072,0.248c0.037,0.058,0.093,0.095,0.168,0.114
	c0.075,0.018,0.175,0.032,0.299,0.041v0.233h-1.78V7.88c0.128-0.005,0.23-0.017,0.306-0.038c0.076-0.021,0.133-0.059,0.172-0.113
	c0.039-0.055,0.064-0.134,0.076-0.237c0.011-0.103,0.018-0.239,0.018-0.409V6.176c0-0.261-0.014-0.481-0.042-0.66
	c-0.027-0.179-0.072-0.323-0.133-0.433c-0.062-0.11-0.144-0.189-0.244-0.237c-0.101-0.048-0.223-0.072-0.365-0.072
	c-0.206,0-0.395,0.054-0.566,0.162c-0.172,0.108-0.307,0.256-0.402,0.444c-0.023,0.045-0.042,0.089-0.059,0.13
	c-0.016,0.041-0.029,0.089-0.038,0.144c-0.009,0.055-0.016,0.118-0.021,0.189c-0.004,0.071-0.007,0.162-0.007,0.272V7.035
	L45.834,7.035z"/>
<path fill="#C99E35" d="M55.738,9.193c-0.21,0.472-0.538,0.708-0.983,0.708c-0.289,0-0.433-0.108-0.433-0.323
	c0-0.115,0.04-0.198,0.12-0.251c0.081-0.052,0.228-0.097,0.443-0.134c0.097-0.014,0.179-0.033,0.248-0.058
	c0.068-0.025,0.13-0.058,0.186-0.096C55.374,9,55.422,8.95,55.466,8.891c0.043-0.06,0.086-0.133,0.127-0.22l0.241-0.481l-1.32-2.866
	c-0.06-0.128-0.111-0.23-0.154-0.306c-0.044-0.076-0.089-0.135-0.138-0.178c-0.048-0.044-0.102-0.074-0.161-0.09
	s-0.136-0.028-0.227-0.038V4.471h1.821v0.241c-0.307,0-0.46,0.076-0.46,0.227c0,0.06,0.018,0.154,0.055,0.282
	c0.037,0.128,0.082,0.259,0.137,0.392l0.756,1.828h0.034l0.625-1.546c0.06-0.151,0.109-0.275,0.148-0.371
	c0.04-0.096,0.069-0.175,0.089-0.237c0.021-0.062,0.035-0.113,0.042-0.154c0.007-0.042,0.01-0.08,0.01-0.117
	c0-0.119-0.033-0.199-0.1-0.241c-0.066-0.041-0.194-0.062-0.381-0.062V4.471h1.512v0.241c-0.087,0-0.161,0.012-0.22,0.034
	c-0.06,0.023-0.12,0.075-0.182,0.155s-0.13,0.196-0.207,0.347c-0.075,0.151-0.168,0.355-0.278,0.611L55.738,9.193z"/>
<path fill="#C99E35" d="M61.807,4.402c0.261,0,0.508,0.047,0.742,0.141c0.234,0.094,0.438,0.224,0.615,0.388
	c0.177,0.165,0.316,0.361,0.419,0.587c0.104,0.227,0.154,0.476,0.154,0.746c0,0.279-0.051,0.536-0.154,0.77
	C63.48,7.269,63.34,7.47,63.164,7.64c-0.176,0.17-0.381,0.302-0.615,0.398s-0.481,0.145-0.742,0.145
	c-0.256,0-0.501-0.047-0.732-0.141c-0.231-0.094-0.435-0.226-0.608-0.396c-0.174-0.169-0.312-0.372-0.412-0.608
	c-0.101-0.236-0.151-0.494-0.151-0.773c0-0.271,0.05-0.52,0.151-0.75c0.101-0.229,0.238-0.426,0.412-0.591
	c0.174-0.165,0.377-0.293,0.608-0.385C61.306,4.448,61.55,4.402,61.807,4.402z M61.807,4.732c-0.17,0-0.325,0.037-0.464,0.11
	c-0.14,0.073-0.259,0.177-0.357,0.312c-0.099,0.135-0.174,0.298-0.227,0.488c-0.053,0.19-0.079,0.399-0.079,0.628
	c0,0.238,0.026,0.454,0.079,0.646s0.128,0.356,0.227,0.491c0.098,0.135,0.216,0.24,0.354,0.313c0.138,0.073,0.293,0.11,0.468,0.11
	c0.174,0,0.332-0.037,0.474-0.11c0.142-0.073,0.264-0.179,0.364-0.316c0.101-0.137,0.179-0.303,0.234-0.495
	c0.055-0.192,0.082-0.406,0.082-0.64c0-0.229-0.027-0.438-0.082-0.625c-0.055-0.188-0.133-0.349-0.234-0.484
	c-0.101-0.135-0.223-0.24-0.364-0.316C62.139,4.77,61.98,4.732,61.807,4.732z"/>
<path fill="#C99E35" d="M68.625,5.571c0-0.188-0.005-0.335-0.014-0.443c-0.01-0.107-0.034-0.19-0.072-0.248
	c-0.039-0.057-0.097-0.096-0.172-0.117c-0.076-0.021-0.181-0.038-0.313-0.051V4.471h1.244v2.11c0,0.261,0.004,0.475,0.011,0.639
	c0.007,0.165,0.017,0.289,0.031,0.372c0.009,0.06,0.023,0.106,0.044,0.141c0.021,0.035,0.052,0.062,0.093,0.083
	c0.042,0.021,0.096,0.034,0.162,0.041c0.066,0.007,0.152,0.01,0.257,0.01v0.241l-1.133,0.083l-0.076-0.825h-0.027
	c-0.175,0.284-0.375,0.491-0.602,0.622c-0.228,0.13-0.464,0.196-0.712,0.196c-0.191,0-0.378-0.037-0.56-0.11
	C66.605,8,66.468,7.901,66.376,7.777c-0.077-0.101-0.134-0.24-0.168-0.419c-0.035-0.179-0.052-0.41-0.052-0.694V5.571
	c0-0.188-0.004-0.335-0.014-0.443c-0.009-0.107-0.033-0.19-0.072-0.248c-0.039-0.057-0.096-0.096-0.172-0.117
	c-0.076-0.021-0.18-0.038-0.313-0.051V4.471h1.244v1.876c0,0.5,0.059,0.861,0.175,1.086c0.117,0.225,0.304,0.337,0.56,0.337
	c0.404,0,0.718-0.264,0.942-0.791c0.023-0.055,0.041-0.105,0.055-0.151s0.025-0.096,0.034-0.151c0.01-0.055,0.017-0.117,0.021-0.186
	c0.005-0.068,0.008-0.151,0.008-0.247V5.571L68.625,5.571z"/>
<path fill="#C99E35" d="M72.948,7.021c0,0.188,0.005,0.337,0.014,0.447c0.009,0.11,0.033,0.194,0.071,0.251
	c0.04,0.057,0.096,0.095,0.169,0.113c0.073,0.019,0.177,0.032,0.31,0.042v0.24h-1.828V7.873c0.133-0.004,0.238-0.017,0.315-0.038
	c0.078-0.021,0.138-0.058,0.179-0.113c0.042-0.055,0.068-0.134,0.079-0.237c0.012-0.103,0.018-0.241,0.018-0.416V6.265
	c0-0.312-0.004-0.555-0.01-0.729c-0.008-0.174-0.03-0.302-0.069-0.384s-0.1-0.132-0.183-0.148C71.93,4.988,71.816,4.98,71.669,4.98
	V4.739l1.202-0.261l0.097,0.853h0.027c0.06-0.138,0.134-0.264,0.224-0.378c0.089-0.115,0.187-0.212,0.292-0.292
	s0.216-0.143,0.33-0.189s0.23-0.069,0.35-0.069c0.147,0,0.263,0.036,0.348,0.106c0.085,0.071,0.127,0.166,0.127,0.286
	c0,0.11-0.034,0.196-0.103,0.257c-0.068,0.062-0.168,0.093-0.296,0.093c-0.073,0-0.135-0.009-0.186-0.027
	c-0.051-0.018-0.095-0.038-0.134-0.058S73.873,5.019,73.838,5c-0.035-0.018-0.073-0.027-0.114-0.027
	c-0.123,0-0.247,0.079-0.371,0.237s-0.22,0.359-0.288,0.602C73.028,5.944,73,6.094,72.979,6.262
	c-0.021,0.167-0.031,0.342-0.031,0.525V7.021L72.948,7.021z"/>
<path fill="#C99E35" d="M81.333,8.183h-0.255l-0.894-2.859c-0.041-0.128-0.08-0.231-0.117-0.309c-0.036-0.078-0.079-0.14-0.13-0.186
	c-0.05-0.045-0.109-0.077-0.179-0.093c-0.068-0.016-0.153-0.024-0.254-0.024V4.471h1.821v0.241c-0.179,0-0.306,0.021-0.378,0.062
	c-0.073,0.042-0.11,0.113-0.11,0.213c0,0.046,0.007,0.1,0.021,0.162c0.013,0.062,0.031,0.138,0.054,0.23l0.468,1.643h0.027
	l1.011-2.55h0.213l0.914,2.55h0.027l0.412-1.113c0.055-0.151,0.102-0.278,0.138-0.381c0.036-0.104,0.065-0.19,0.086-0.261
	s0.035-0.129,0.045-0.175c0.009-0.046,0.014-0.09,0.014-0.131c0-0.101-0.03-0.167-0.09-0.199c-0.06-0.032-0.184-0.048-0.371-0.048
	V4.471h1.375v0.241c-0.069,0-0.127,0.01-0.176,0.031c-0.048,0.021-0.096,0.061-0.144,0.121c-0.049,0.06-0.098,0.144-0.148,0.254
	c-0.05,0.11-0.112,0.254-0.186,0.433l-1.065,2.632h-0.254l-0.838-2.536h-0.028L81.333,8.183z"/>
<path fill="#C99E35" d="M88.219,7.021c0,0.179,0.008,0.322,0.023,0.43c0.017,0.108,0.047,0.192,0.094,0.254
	c0.045,0.062,0.109,0.104,0.191,0.127c0.083,0.023,0.193,0.037,0.33,0.042v0.24h-1.973V7.873c0.138-0.004,0.25-0.02,0.337-0.044
	s0.155-0.066,0.203-0.124s0.08-0.138,0.097-0.241c0.016-0.103,0.023-0.235,0.023-0.396V6.189c0-0.266-0.004-0.484-0.011-0.656
	c-0.006-0.172-0.02-0.29-0.037-0.354c-0.023-0.105-0.076-0.178-0.158-0.217c-0.082-0.039-0.238-0.058-0.468-0.058v-0.24l1.348-0.262
	V7.021L88.219,7.021z M87.428,3.007c0-0.119,0.042-0.22,0.124-0.302c0.082-0.083,0.184-0.124,0.303-0.124s0.219,0.042,0.302,0.124
	c0.083,0.082,0.124,0.183,0.124,0.302s-0.041,0.22-0.124,0.302c-0.083,0.083-0.183,0.124-0.302,0.124s-0.221-0.041-0.303-0.124
	C87.47,3.228,87.428,3.126,87.428,3.007z"/>
<path fill="#C99E35" d="M90.961,8.114H90.81V6.932h0.171c0.18,0.646,0.505,0.969,0.977,0.969c0.184,0,0.329-0.045,0.437-0.134
	c0.107-0.089,0.161-0.226,0.161-0.409c0-0.069-0.01-0.127-0.03-0.175c-0.021-0.048-0.06-0.099-0.118-0.151
	c-0.057-0.053-0.137-0.113-0.239-0.182c-0.104-0.069-0.239-0.156-0.409-0.261c-0.156-0.096-0.291-0.185-0.405-0.268
	c-0.115-0.082-0.211-0.166-0.289-0.25c-0.078-0.085-0.136-0.175-0.176-0.271c-0.038-0.096-0.058-0.208-0.058-0.337
	c0-0.156,0.026-0.299,0.079-0.43c0.053-0.13,0.124-0.242,0.216-0.333c0.092-0.092,0.2-0.164,0.323-0.217
	c0.124-0.053,0.26-0.079,0.406-0.079c0.123,0,0.252,0.02,0.384,0.059c0.134,0.039,0.25,0.09,0.351,0.154l0.138-0.144h0.131v0.99
	h-0.179c-0.102-0.279-0.211-0.479-0.33-0.598s-0.266-0.178-0.439-0.178c-0.156,0-0.281,0.041-0.375,0.124
	c-0.094,0.082-0.141,0.197-0.141,0.344c0,0.078,0.013,0.146,0.037,0.203c0.025,0.057,0.066,0.113,0.121,0.168
	c0.056,0.055,0.125,0.111,0.209,0.168c0.085,0.057,0.187,0.122,0.307,0.196c0.196,0.124,0.364,0.233,0.505,0.33
	c0.14,0.097,0.253,0.191,0.34,0.285C93,6.596,93.064,6.693,93.105,6.794c0.041,0.102,0.063,0.216,0.063,0.344
	c0,0.325-0.105,0.581-0.316,0.766s-0.488,0.278-0.832,0.278c-0.357,0-0.664-0.103-0.921-0.309L90.961,8.114z"/>
<path fill="#C99E35" d="M96.294,7.021c0,0.188,0.005,0.337,0.014,0.447c0.009,0.11,0.033,0.194,0.072,0.251s0.095,0.095,0.168,0.113
	c0.074,0.019,0.177,0.032,0.31,0.042v0.24H95.03V7.873c0.133-0.009,0.238-0.022,0.316-0.041c0.078-0.018,0.138-0.055,0.179-0.11
	c0.041-0.055,0.067-0.134,0.078-0.237c0.012-0.103,0.018-0.241,0.018-0.416v-2.88c0-0.271-0.003-0.486-0.01-0.646
	c-0.008-0.161-0.02-0.282-0.038-0.364c-0.01-0.055-0.024-0.1-0.045-0.134c-0.021-0.035-0.052-0.062-0.093-0.083
	c-0.041-0.021-0.096-0.036-0.165-0.045c-0.068-0.009-0.153-0.014-0.254-0.014V2.671l1.265-0.262v2.619h0.027
	c0.068-0.091,0.154-0.175,0.258-0.251c0.103-0.075,0.214-0.141,0.333-0.196c0.119-0.055,0.244-0.098,0.375-0.13
	s0.257-0.048,0.381-0.048c0.211,0,0.404,0.037,0.581,0.11s0.313,0.172,0.409,0.295c0.077,0.105,0.135,0.244,0.171,0.416
	c0.037,0.172,0.056,0.405,0.056,0.698v1.1c0,0.188,0.005,0.336,0.014,0.443c0.009,0.108,0.033,0.191,0.072,0.251
	s0.095,0.099,0.168,0.117c0.073,0.018,0.177,0.032,0.31,0.041v0.24h-1.821V7.873c0.129-0.004,0.232-0.017,0.31-0.038
	s0.137-0.058,0.175-0.113c0.039-0.055,0.064-0.134,0.076-0.237c0.011-0.103,0.017-0.241,0.017-0.416V6.203
	c0-0.513-0.06-0.878-0.179-1.096C97.893,4.89,97.694,4.78,97.415,4.78c-0.215,0-0.411,0.055-0.588,0.166
	c-0.176,0.11-0.314,0.261-0.416,0.454c-0.022,0.05-0.041,0.097-0.058,0.141s-0.029,0.093-0.038,0.148
	c-0.009,0.055-0.015,0.118-0.017,0.189c-0.003,0.071-0.004,0.159-0.004,0.264V7.021L96.294,7.021z"/>
<path fill="#C99E35" d="M104.555,7.475c-0.389,0.472-0.873,0.708-1.449,0.708c-0.271,0-0.517-0.045-0.736-0.134
	c-0.22-0.089-0.408-0.216-0.566-0.378c-0.158-0.162-0.281-0.357-0.368-0.584s-0.13-0.478-0.13-0.752c0-0.28,0.045-0.539,0.137-0.777
	s0.221-0.442,0.389-0.612c0.167-0.169,0.367-0.302,0.598-0.398c0.231-0.096,0.484-0.145,0.76-0.145c0.444,0,0.787,0.121,1.031,0.361
	c0.242,0.241,0.364,0.585,0.364,1.035c0,0.064-0.014,0.103-0.039,0.117c-0.024,0.014-0.083,0.021-0.175,0.021h-2.261
	c-0.01,0.037-0.016,0.082-0.021,0.134c-0.004,0.053-0.007,0.111-0.007,0.175c0,0.238,0.029,0.455,0.086,0.649
	c0.058,0.195,0.141,0.361,0.248,0.499c0.107,0.137,0.235,0.244,0.385,0.319c0.148,0.076,0.314,0.113,0.498,0.113
	c0.192,0,0.371-0.042,0.536-0.127c0.166-0.085,0.335-0.224,0.509-0.416L104.555,7.475z M103.421,5.619
	c0.092,0,0.165-0.002,0.221-0.007c0.055-0.005,0.096-0.014,0.123-0.028c0.027-0.014,0.046-0.033,0.056-0.058
	c0.009-0.025,0.013-0.058,0.013-0.1c0-0.211-0.067-0.379-0.202-0.505s-0.319-0.189-0.554-0.189c-0.494,0-0.801,0.295-0.921,0.887
	H103.421L103.421,5.619z"/>
<path fill="#C99E35" d="M106.872,8.114h-0.151V6.932h0.172c0.179,0.646,0.504,0.969,0.976,0.969c0.184,0,0.329-0.045,0.437-0.134
	c0.108-0.089,0.162-0.226,0.162-0.409c0-0.069-0.011-0.127-0.031-0.175s-0.06-0.099-0.116-0.151
	c-0.058-0.053-0.138-0.113-0.241-0.182c-0.103-0.069-0.239-0.156-0.408-0.261c-0.156-0.096-0.292-0.185-0.406-0.268
	c-0.114-0.082-0.211-0.166-0.289-0.25c-0.078-0.085-0.136-0.175-0.175-0.271s-0.059-0.208-0.059-0.337
	c0-0.156,0.026-0.299,0.079-0.43c0.054-0.13,0.125-0.242,0.217-0.333c0.092-0.092,0.199-0.164,0.323-0.217
	c0.123-0.053,0.259-0.079,0.405-0.079c0.124,0,0.252,0.02,0.385,0.059s0.25,0.09,0.351,0.154l0.138-0.144h0.13v0.99h-0.178
	c-0.102-0.279-0.211-0.479-0.331-0.598c-0.118-0.119-0.265-0.178-0.439-0.178c-0.156,0-0.28,0.041-0.374,0.124
	c-0.095,0.082-0.141,0.197-0.141,0.344c0,0.078,0.012,0.146,0.037,0.203s0.065,0.113,0.12,0.168c0.056,0.055,0.125,0.111,0.21,0.168
	c0.085,0.057,0.187,0.122,0.306,0.196c0.197,0.124,0.365,0.233,0.505,0.33c0.14,0.097,0.253,0.191,0.341,0.285
	c0.087,0.094,0.15,0.191,0.192,0.292c0.041,0.102,0.062,0.216,0.062,0.344c0,0.325-0.105,0.581-0.316,0.766
	c-0.21,0.186-0.488,0.278-0.831,0.278c-0.357,0-0.665-0.103-0.921-0.309L106.872,8.114z"/>
<circle fill="#C99E35" cx="10.405" cy="1.432" r="1.432"/>
<g>
	<g>
		<path fill="#FFFFFF" d="M6.809,7.191c0,0.365,0.115,0.704,0.31,0.982C7.835,7.48,8.305,6.535,8.386,5.48
			C7.503,5.552,6.809,6.29,6.809,7.191z"/>
	</g>
</g>
<path fill="#C99E35" d="M18.143,8.114V7.853c0.174-0.004,0.315-0.017,0.423-0.038c0.108-0.021,0.191-0.06,0.251-0.117
	c0.06-0.058,0.1-0.135,0.12-0.234s0.031-0.23,0.031-0.395V3.866c0-0.16-0.008-0.29-0.024-0.388
	c-0.016-0.099-0.048-0.176-0.096-0.233c-0.048-0.057-0.118-0.096-0.209-0.117c-0.092-0.021-0.211-0.035-0.357-0.044V2.822h2.412
	c0.413,0,0.794,0.069,1.145,0.206c0.351,0.138,0.653,0.328,0.907,0.571c0.254,0.243,0.453,0.531,0.595,0.866
	s0.213,0.699,0.213,1.093c0,0.376-0.066,0.721-0.199,1.034c-0.133,0.314-0.32,0.583-0.56,0.808
	c-0.241,0.224-0.528,0.399-0.863,0.525c-0.334,0.126-0.701,0.189-1.1,0.189H18.143z M19.807,3.159c-0.078,0-0.117,0.039-0.117,0.117
	v3.718c0,0.522,0.341,0.783,1.024,0.783c0.628,0,1.109-0.187,1.443-0.56c0.334-0.373,0.501-0.922,0.501-1.646
	c0-0.38-0.046-0.719-0.137-1.017c-0.092-0.298-0.224-0.55-0.395-0.756c-0.172-0.207-0.379-0.364-0.623-0.475
	c-0.243-0.11-0.518-0.165-0.825-0.165H19.807z"/>
<path fill="#C99E35" d="M28.92,7.475c-0.389,0.472-0.873,0.708-1.45,0.708c-0.271,0-0.516-0.045-0.736-0.134
	c-0.22-0.089-0.409-0.216-0.567-0.378c-0.158-0.162-0.281-0.357-0.368-0.584s-0.13-0.478-0.13-0.752c0-0.28,0.045-0.539,0.137-0.777
	s0.221-0.442,0.388-0.612c0.167-0.169,0.367-0.302,0.598-0.398c0.231-0.096,0.484-0.145,0.759-0.145
	c0.444,0,0.788,0.121,1.031,0.361c0.243,0.241,0.365,0.585,0.365,1.035c0,0.064-0.013,0.103-0.038,0.117
	c-0.026,0.014-0.084,0.021-0.176,0.021h-2.261c-0.009,0.037-0.016,0.082-0.021,0.134s-0.007,0.111-0.007,0.175
	c0,0.238,0.029,0.455,0.086,0.649s0.14,0.361,0.248,0.499c0.107,0.137,0.235,0.244,0.385,0.319c0.148,0.076,0.315,0.113,0.498,0.113
	c0.193,0,0.371-0.042,0.536-0.127s0.334-0.224,0.509-0.416L28.92,7.475z M27.786,5.619c0.091,0,0.165-0.002,0.22-0.007
	c0.055-0.005,0.096-0.014,0.124-0.028c0.028-0.014,0.046-0.033,0.055-0.058c0.009-0.025,0.014-0.058,0.014-0.1
	c0-0.211-0.067-0.379-0.203-0.505c-0.135-0.126-0.319-0.189-0.553-0.189c-0.495,0-0.802,0.295-0.921,0.887H27.786L27.786,5.619z"/>
<path fill="#C99E35" d="M31.236,8.114h-0.151V6.932h0.172c0.179,0.646,0.504,0.969,0.976,0.969c0.183,0,0.329-0.045,0.437-0.134
	c0.107-0.089,0.161-0.226,0.161-0.409c0-0.069-0.01-0.127-0.031-0.175s-0.06-0.099-0.117-0.151c-0.057-0.053-0.137-0.113-0.24-0.182
	s-0.24-0.156-0.409-0.261c-0.156-0.096-0.291-0.185-0.405-0.268c-0.115-0.082-0.211-0.166-0.289-0.25
	c-0.078-0.085-0.136-0.175-0.175-0.271s-0.059-0.208-0.059-0.337c0-0.156,0.026-0.299,0.079-0.43
	c0.053-0.13,0.125-0.242,0.217-0.333c0.091-0.092,0.199-0.164,0.323-0.217s0.259-0.079,0.406-0.079c0.124,0,0.252,0.02,0.385,0.059
	s0.25,0.09,0.351,0.154l0.137-0.144h0.131v0.99h-0.179c-0.101-0.279-0.211-0.479-0.33-0.598s-0.266-0.178-0.44-0.178
	c-0.156,0-0.281,0.041-0.375,0.124c-0.094,0.082-0.141,0.197-0.141,0.344c0,0.078,0.013,0.146,0.038,0.203
	c0.025,0.057,0.066,0.113,0.121,0.168c0.055,0.055,0.125,0.111,0.21,0.168c0.084,0.057,0.187,0.122,0.306,0.196
	c0.197,0.124,0.366,0.233,0.505,0.33c0.14,0.097,0.252,0.191,0.34,0.285c0.087,0.094,0.151,0.191,0.192,0.292
	c0.042,0.102,0.062,0.216,0.062,0.344c0,0.325-0.105,0.581-0.316,0.766c-0.21,0.186-0.488,0.278-0.832,0.278
	c-0.357,0-0.665-0.103-0.921-0.309L31.236,8.114z"/>
<path fill="#C99E35" d="M36.707,7.021c0,0.179,0.008,0.322,0.024,0.43s0.047,0.192,0.093,0.254s0.11,0.104,0.192,0.127
	c0.083,0.023,0.193,0.037,0.33,0.042v0.24h-1.972V7.873c0.137-0.004,0.25-0.02,0.336-0.044s0.155-0.066,0.203-0.124
	s0.081-0.138,0.096-0.241c0.016-0.103,0.024-0.235,0.024-0.396V6.189c0-0.266-0.003-0.484-0.01-0.656
	c-0.007-0.172-0.02-0.29-0.038-0.354c-0.023-0.105-0.076-0.178-0.158-0.217c-0.083-0.039-0.239-0.058-0.468-0.058v-0.24l1.347-0.262
	V7.021L36.707,7.021z M35.917,3.007c0-0.119,0.042-0.22,0.124-0.302c0.083-0.083,0.184-0.124,0.303-0.124s0.22,0.042,0.302,0.124
	c0.083,0.082,0.124,0.183,0.124,0.302s-0.041,0.22-0.124,0.302c-0.082,0.083-0.183,0.124-0.302,0.124s-0.22-0.041-0.303-0.124
	C35.958,3.228,35.917,3.126,35.917,3.007z"/>
<path fill="#C99E35" d="M40.363,7.44c0.11,0.009,0.21,0.018,0.302,0.027c0.091,0.009,0.182,0.018,0.271,0.028
	c0.089,0.009,0.179,0.021,0.268,0.034c0.089,0.014,0.187,0.028,0.292,0.042c0.33,0.05,0.595,0.178,0.794,0.381
	c0.199,0.204,0.298,0.459,0.298,0.767c0,0.385-0.152,0.678-0.457,0.879C41.828,9.8,41.387,9.9,40.81,9.9
	c-0.256,0-0.491-0.022-0.705-0.068c-0.213-0.046-0.395-0.111-0.546-0.196c-0.152-0.085-0.27-0.187-0.354-0.306
	c-0.085-0.119-0.128-0.25-0.128-0.392c0-0.096,0.017-0.186,0.048-0.268c0.032-0.083,0.076-0.155,0.13-0.216
	c0.055-0.062,0.121-0.111,0.196-0.147c0.076-0.037,0.154-0.055,0.237-0.055c0.155,0,0.295,0.048,0.419,0.144
	c-0.124,0.027-0.225,0.095-0.302,0.203c-0.078,0.108-0.117,0.23-0.117,0.368c0,0.202,0.099,0.357,0.299,0.467
	c0.2,0.11,0.482,0.165,0.849,0.165c0.783,0,1.175-0.24,1.175-0.722c0-0.183-0.062-0.335-0.186-0.457
	c-0.124-0.121-0.271-0.193-0.439-0.216c-0.11-0.014-0.224-0.029-0.341-0.045c-0.117-0.016-0.231-0.031-0.343-0.044
	s-0.216-0.025-0.313-0.034c-0.096-0.009-0.174-0.019-0.233-0.028c-0.257-0.027-0.451-0.096-0.584-0.206s-0.199-0.261-0.199-0.454
	c0-0.161,0.066-0.302,0.199-0.426c0.133-0.124,0.3-0.202,0.501-0.234V6.705c-0.101-0.042-0.194-0.1-0.282-0.175
	c-0.087-0.076-0.162-0.162-0.224-0.258c-0.062-0.096-0.11-0.201-0.147-0.313c-0.037-0.113-0.055-0.228-0.055-0.347
	c0-0.174,0.033-0.335,0.1-0.481c0.066-0.147,0.16-0.274,0.281-0.382c0.122-0.107,0.265-0.192,0.43-0.254
	c0.165-0.062,0.346-0.093,0.543-0.093c0.201,0,0.392,0.031,0.57,0.093c0.179,0.062,0.332,0.153,0.46,0.272
	c0.156-0.128,0.293-0.221,0.412-0.279c0.12-0.057,0.231-0.085,0.337-0.085c0.165,0,0.297,0.038,0.395,0.113
	c0.099,0.076,0.148,0.177,0.148,0.306c0,0.078-0.026,0.14-0.08,0.186c-0.052,0.046-0.117,0.069-0.195,0.069
	c-0.064,0-0.117-0.011-0.158-0.034c-0.042-0.023-0.08-0.047-0.114-0.072c-0.034-0.025-0.07-0.049-0.107-0.072
	c-0.036-0.023-0.082-0.034-0.137-0.034c-0.11,0-0.222,0.039-0.336,0.117c0.11,0.169,0.165,0.383,0.165,0.639
	c0,0.39-0.121,0.695-0.364,0.917c-0.243,0.222-0.607,0.352-1.092,0.388c-0.279,0.023-0.475,0.053-0.584,0.09
	c-0.11,0.036-0.165,0.103-0.165,0.199c0,0.073,0.041,0.127,0.124,0.161C40.082,7.409,40.203,7.432,40.363,7.44z M40.741,6.636
	c0.192,0,0.342-0.087,0.45-0.261s0.161-0.419,0.161-0.735c0-0.312-0.053-0.553-0.161-0.725s-0.26-0.257-0.457-0.257
	c-0.197,0-0.354,0.087-0.471,0.261c-0.117,0.174-0.175,0.413-0.175,0.715s0.06,0.545,0.179,0.729S40.544,6.636,40.741,6.636z"/>
<path fill="#C99E35" d="M45.834,7.035c0,0.188,0.005,0.335,0.014,0.443c0.009,0.108,0.033,0.19,0.073,0.248
	c0.039,0.058,0.096,0.095,0.172,0.114c0.075,0.018,0.179,0.032,0.313,0.041v0.233h-1.801V7.88c0.128-0.009,0.23-0.023,0.306-0.042
	c0.075-0.018,0.134-0.055,0.175-0.11c0.041-0.055,0.067-0.133,0.079-0.233c0.012-0.101,0.018-0.238,0.018-0.413V6.169
	c0-0.545-0.014-0.877-0.041-0.997c-0.014-0.06-0.031-0.109-0.052-0.148c-0.021-0.039-0.052-0.068-0.093-0.089
	c-0.042-0.021-0.094-0.034-0.158-0.041c-0.064-0.007-0.147-0.01-0.248-0.01v-0.22l1.1-0.261l0.083,0.68H45.8
	c0.174-0.215,0.378-0.383,0.612-0.502c0.233-0.119,0.488-0.178,0.762-0.178c0.211,0,0.404,0.034,0.578,0.103
	c0.173,0.068,0.307,0.163,0.398,0.282c0.078,0.105,0.132,0.242,0.165,0.409c0.032,0.167,0.048,0.397,0.048,0.691v1.148
	c0,0.188,0.005,0.335,0.018,0.443c0.011,0.108,0.035,0.19,0.072,0.248c0.037,0.058,0.093,0.095,0.168,0.114
	c0.075,0.018,0.175,0.032,0.299,0.041v0.233h-1.78V7.88c0.128-0.005,0.23-0.017,0.306-0.038c0.076-0.021,0.133-0.059,0.172-0.113
	c0.039-0.055,0.064-0.134,0.076-0.237c0.011-0.103,0.018-0.239,0.018-0.409V6.176c0-0.261-0.014-0.481-0.042-0.66
	c-0.027-0.179-0.072-0.323-0.133-0.433c-0.062-0.11-0.144-0.189-0.244-0.237c-0.101-0.048-0.223-0.072-0.365-0.072
	c-0.206,0-0.395,0.054-0.566,0.162c-0.172,0.108-0.307,0.256-0.402,0.444c-0.023,0.045-0.042,0.089-0.059,0.13
	c-0.016,0.041-0.029,0.089-0.038,0.144c-0.009,0.055-0.016,0.118-0.021,0.189c-0.004,0.071-0.007,0.162-0.007,0.272V7.035
	L45.834,7.035z"/>
<path fill="#C99E35" d="M55.738,9.193c-0.21,0.472-0.538,0.708-0.983,0.708c-0.289,0-0.433-0.108-0.433-0.323
	c0-0.115,0.04-0.198,0.12-0.251c0.081-0.052,0.228-0.097,0.443-0.134c0.097-0.014,0.179-0.033,0.248-0.058
	c0.068-0.025,0.13-0.058,0.186-0.096C55.374,9,55.422,8.95,55.466,8.891c0.043-0.06,0.086-0.133,0.127-0.22l0.241-0.481l-1.32-2.866
	c-0.06-0.128-0.111-0.23-0.154-0.306c-0.044-0.076-0.089-0.135-0.138-0.178c-0.048-0.044-0.102-0.074-0.161-0.09
	s-0.136-0.028-0.227-0.038V4.471h1.821v0.241c-0.307,0-0.46,0.076-0.46,0.227c0,0.06,0.018,0.154,0.055,0.282
	c0.037,0.128,0.082,0.259,0.137,0.392l0.756,1.828h0.034l0.625-1.546c0.06-0.151,0.109-0.275,0.148-0.371
	c0.04-0.096,0.069-0.175,0.089-0.237c0.021-0.062,0.035-0.113,0.042-0.154c0.007-0.042,0.01-0.08,0.01-0.117
	c0-0.119-0.033-0.199-0.1-0.241c-0.066-0.041-0.194-0.062-0.381-0.062V4.471h1.512v0.241c-0.087,0-0.161,0.012-0.22,0.034
	c-0.06,0.023-0.12,0.075-0.182,0.155s-0.13,0.196-0.207,0.347c-0.075,0.151-0.168,0.355-0.278,0.611L55.738,9.193z"/>
<path fill="#C99E35" d="M61.807,4.402c0.261,0,0.508,0.047,0.742,0.141c0.234,0.094,0.438,0.224,0.615,0.388
	c0.177,0.165,0.316,0.361,0.419,0.587c0.104,0.227,0.154,0.476,0.154,0.746c0,0.279-0.051,0.536-0.154,0.77
	C63.48,7.269,63.34,7.47,63.164,7.64c-0.176,0.17-0.381,0.302-0.615,0.398s-0.481,0.145-0.742,0.145
	c-0.256,0-0.501-0.047-0.732-0.141c-0.231-0.094-0.435-0.226-0.608-0.396c-0.174-0.169-0.312-0.372-0.412-0.608
	c-0.101-0.236-0.151-0.494-0.151-0.773c0-0.271,0.05-0.52,0.151-0.75c0.101-0.229,0.238-0.426,0.412-0.591
	c0.174-0.165,0.377-0.293,0.608-0.385C61.306,4.448,61.55,4.402,61.807,4.402z M61.807,4.732c-0.17,0-0.325,0.037-0.464,0.11
	c-0.14,0.073-0.259,0.177-0.357,0.312c-0.099,0.135-0.174,0.298-0.227,0.488c-0.053,0.19-0.079,0.399-0.079,0.628
	c0,0.238,0.026,0.454,0.079,0.646s0.128,0.356,0.227,0.491c0.098,0.135,0.216,0.24,0.354,0.313c0.138,0.073,0.293,0.11,0.468,0.11
	c0.174,0,0.332-0.037,0.474-0.11c0.142-0.073,0.264-0.179,0.364-0.316c0.101-0.137,0.179-0.303,0.234-0.495
	c0.055-0.192,0.082-0.406,0.082-0.64c0-0.229-0.027-0.438-0.082-0.625c-0.055-0.188-0.133-0.349-0.234-0.484
	c-0.101-0.135-0.223-0.24-0.364-0.316C62.139,4.77,61.98,4.732,61.807,4.732z"/>
<path fill="#C99E35" d="M68.625,5.571c0-0.188-0.005-0.335-0.014-0.443c-0.01-0.107-0.034-0.19-0.072-0.248
	c-0.039-0.057-0.097-0.096-0.172-0.117c-0.076-0.021-0.181-0.038-0.313-0.051V4.471h1.244v2.11c0,0.261,0.004,0.475,0.011,0.639
	c0.007,0.165,0.017,0.289,0.031,0.372c0.009,0.06,0.023,0.106,0.044,0.141c0.021,0.035,0.052,0.062,0.093,0.083
	c0.042,0.021,0.096,0.034,0.162,0.041c0.066,0.007,0.152,0.01,0.257,0.01v0.241l-1.133,0.083l-0.076-0.825h-0.027
	c-0.175,0.284-0.375,0.491-0.602,0.622c-0.228,0.13-0.464,0.196-0.712,0.196c-0.191,0-0.378-0.037-0.56-0.11
	C66.605,8,66.468,7.901,66.376,7.777c-0.077-0.101-0.134-0.24-0.168-0.419c-0.035-0.179-0.052-0.41-0.052-0.694V5.571
	c0-0.188-0.004-0.335-0.014-0.443c-0.009-0.107-0.033-0.19-0.072-0.248c-0.039-0.057-0.096-0.096-0.172-0.117
	c-0.076-0.021-0.18-0.038-0.313-0.051V4.471h1.244v1.876c0,0.5,0.059,0.861,0.175,1.086c0.117,0.225,0.304,0.337,0.56,0.337
	c0.404,0,0.718-0.264,0.942-0.791c0.023-0.055,0.041-0.105,0.055-0.151s0.025-0.096,0.034-0.151c0.01-0.055,0.017-0.117,0.021-0.186
	c0.005-0.068,0.008-0.151,0.008-0.247V5.571L68.625,5.571z"/>
<path fill="#C99E35" d="M72.948,7.021c0,0.188,0.005,0.337,0.014,0.447c0.009,0.11,0.033,0.194,0.071,0.251
	c0.04,0.057,0.096,0.095,0.169,0.113c0.073,0.019,0.177,0.032,0.31,0.042v0.24h-1.828V7.873c0.133-0.004,0.238-0.017,0.315-0.038
	c0.078-0.021,0.138-0.058,0.179-0.113c0.042-0.055,0.068-0.134,0.079-0.237c0.012-0.103,0.018-0.241,0.018-0.416V6.265
	c0-0.312-0.004-0.555-0.01-0.729c-0.008-0.174-0.03-0.302-0.069-0.384s-0.1-0.132-0.183-0.148C71.93,4.988,71.816,4.98,71.669,4.98
	V4.739l1.202-0.261l0.097,0.853h0.027c0.06-0.138,0.134-0.264,0.224-0.378c0.089-0.115,0.187-0.212,0.292-0.292
	s0.216-0.143,0.33-0.189s0.23-0.069,0.35-0.069c0.147,0,0.263,0.036,0.348,0.106c0.085,0.071,0.127,0.166,0.127,0.286
	c0,0.11-0.034,0.196-0.103,0.257c-0.068,0.062-0.168,0.093-0.296,0.093c-0.073,0-0.135-0.009-0.186-0.027
	c-0.051-0.018-0.095-0.038-0.134-0.058S73.873,5.019,73.838,5c-0.035-0.018-0.073-0.027-0.114-0.027
	c-0.123,0-0.247,0.079-0.371,0.237s-0.22,0.359-0.288,0.602C73.028,5.944,73,6.094,72.979,6.262
	c-0.021,0.167-0.031,0.342-0.031,0.525V7.021L72.948,7.021z"/>
<path fill="#C99E35" d="M81.333,8.183h-0.255l-0.894-2.859c-0.041-0.128-0.08-0.231-0.117-0.309c-0.036-0.078-0.079-0.14-0.13-0.186
	c-0.05-0.045-0.109-0.077-0.179-0.093c-0.068-0.016-0.153-0.024-0.254-0.024V4.471h1.821v0.241c-0.179,0-0.306,0.021-0.378,0.062
	c-0.073,0.042-0.11,0.113-0.11,0.213c0,0.046,0.007,0.1,0.021,0.162c0.013,0.062,0.031,0.138,0.054,0.23l0.468,1.643h0.027
	l1.011-2.55h0.213l0.914,2.55h0.027l0.412-1.113c0.055-0.151,0.102-0.278,0.138-0.381c0.036-0.104,0.065-0.19,0.086-0.261
	s0.035-0.129,0.045-0.175c0.009-0.046,0.014-0.09,0.014-0.131c0-0.101-0.03-0.167-0.09-0.199c-0.06-0.032-0.184-0.048-0.371-0.048
	V4.471h1.375v0.241c-0.069,0-0.127,0.01-0.176,0.031c-0.048,0.021-0.096,0.061-0.144,0.121c-0.049,0.06-0.098,0.144-0.148,0.254
	c-0.05,0.11-0.112,0.254-0.186,0.433l-1.065,2.632h-0.254l-0.838-2.536h-0.028L81.333,8.183z"/>
<path fill="#C99E35" d="M88.219,7.021c0,0.179,0.008,0.322,0.023,0.43c0.017,0.108,0.047,0.192,0.094,0.254
	c0.045,0.062,0.109,0.104,0.191,0.127c0.083,0.023,0.193,0.037,0.33,0.042v0.24h-1.973V7.873c0.138-0.004,0.25-0.02,0.337-0.044
	s0.155-0.066,0.203-0.124s0.08-0.138,0.097-0.241c0.016-0.103,0.023-0.235,0.023-0.396V6.189c0-0.266-0.004-0.484-0.011-0.656
	c-0.006-0.172-0.02-0.29-0.037-0.354c-0.023-0.105-0.076-0.178-0.158-0.217c-0.082-0.039-0.238-0.058-0.468-0.058v-0.24l1.348-0.262
	V7.021L88.219,7.021z M87.428,3.007c0-0.119,0.042-0.22,0.124-0.302c0.082-0.083,0.184-0.124,0.303-0.124s0.219,0.042,0.302,0.124
	c0.083,0.082,0.124,0.183,0.124,0.302s-0.041,0.22-0.124,0.302c-0.083,0.083-0.183,0.124-0.302,0.124s-0.221-0.041-0.303-0.124
	C87.47,3.228,87.428,3.126,87.428,3.007z"/>
<path fill="#C99E35" d="M90.961,8.114H90.81V6.932h0.171c0.18,0.646,0.505,0.969,0.977,0.969c0.184,0,0.329-0.045,0.437-0.134
	c0.107-0.089,0.161-0.226,0.161-0.409c0-0.069-0.01-0.127-0.03-0.175c-0.021-0.048-0.06-0.099-0.118-0.151
	c-0.057-0.053-0.137-0.113-0.239-0.182c-0.104-0.069-0.239-0.156-0.409-0.261c-0.156-0.096-0.291-0.185-0.405-0.268
	c-0.115-0.082-0.211-0.166-0.289-0.25c-0.078-0.085-0.136-0.175-0.176-0.271c-0.038-0.096-0.058-0.208-0.058-0.337
	c0-0.156,0.026-0.299,0.079-0.43c0.053-0.13,0.124-0.242,0.216-0.333c0.092-0.092,0.2-0.164,0.323-0.217
	c0.124-0.053,0.26-0.079,0.406-0.079c0.123,0,0.252,0.02,0.384,0.059c0.134,0.039,0.25,0.09,0.351,0.154l0.138-0.144h0.131v0.99
	h-0.179c-0.102-0.279-0.211-0.479-0.33-0.598s-0.266-0.178-0.439-0.178c-0.156,0-0.281,0.041-0.375,0.124
	c-0.094,0.082-0.141,0.197-0.141,0.344c0,0.078,0.013,0.146,0.037,0.203c0.025,0.057,0.066,0.113,0.121,0.168
	c0.056,0.055,0.125,0.111,0.209,0.168c0.085,0.057,0.187,0.122,0.307,0.196c0.196,0.124,0.364,0.233,0.505,0.33
	c0.14,0.097,0.253,0.191,0.34,0.285C93,6.596,93.064,6.693,93.105,6.794c0.041,0.102,0.063,0.216,0.063,0.344
	c0,0.325-0.105,0.581-0.316,0.766s-0.488,0.278-0.832,0.278c-0.357,0-0.664-0.103-0.921-0.309L90.961,8.114z"/>
<path fill="#C99E35" d="M96.294,7.021c0,0.188,0.005,0.337,0.014,0.447c0.009,0.11,0.033,0.194,0.072,0.251s0.095,0.095,0.168,0.113
	c0.074,0.019,0.177,0.032,0.31,0.042v0.24H95.03V7.873c0.133-0.009,0.238-0.022,0.316-0.041c0.078-0.018,0.138-0.055,0.179-0.11
	c0.041-0.055,0.067-0.134,0.078-0.237c0.012-0.103,0.018-0.241,0.018-0.416v-2.88c0-0.271-0.003-0.486-0.01-0.646
	c-0.008-0.161-0.02-0.282-0.038-0.364c-0.01-0.055-0.024-0.1-0.045-0.134c-0.021-0.035-0.052-0.062-0.093-0.083
	c-0.041-0.021-0.096-0.036-0.165-0.045c-0.068-0.009-0.153-0.014-0.254-0.014V2.671l1.265-0.262v2.619h0.027
	c0.068-0.091,0.154-0.175,0.258-0.251c0.103-0.075,0.214-0.141,0.333-0.196c0.119-0.055,0.244-0.098,0.375-0.13
	s0.257-0.048,0.381-0.048c0.211,0,0.404,0.037,0.581,0.11s0.313,0.172,0.409,0.295c0.077,0.105,0.135,0.244,0.171,0.416
	c0.037,0.172,0.056,0.405,0.056,0.698v1.1c0,0.188,0.005,0.336,0.014,0.443c0.009,0.108,0.033,0.191,0.072,0.251
	s0.095,0.099,0.168,0.117c0.073,0.018,0.177,0.032,0.31,0.041v0.24h-1.821V7.873c0.129-0.004,0.232-0.017,0.31-0.038
	s0.137-0.058,0.175-0.113c0.039-0.055,0.064-0.134,0.076-0.237c0.011-0.103,0.017-0.241,0.017-0.416V6.203
	c0-0.513-0.06-0.878-0.179-1.096C97.893,4.89,97.694,4.78,97.415,4.78c-0.215,0-0.411,0.055-0.588,0.166
	c-0.176,0.11-0.314,0.261-0.416,0.454c-0.022,0.05-0.041,0.097-0.058,0.141s-0.029,0.093-0.038,0.148
	c-0.009,0.055-0.015,0.118-0.017,0.189c-0.003,0.071-0.004,0.159-0.004,0.264V7.021L96.294,7.021z"/>
<path fill="#C99E35" d="M104.555,7.475c-0.389,0.472-0.873,0.708-1.449,0.708c-0.271,0-0.517-0.045-0.736-0.134
	c-0.22-0.089-0.408-0.216-0.566-0.378c-0.158-0.162-0.281-0.357-0.368-0.584s-0.13-0.478-0.13-0.752c0-0.28,0.045-0.539,0.137-0.777
	s0.221-0.442,0.389-0.612c0.167-0.169,0.367-0.302,0.598-0.398c0.231-0.096,0.484-0.145,0.76-0.145c0.444,0,0.787,0.121,1.031,0.361
	c0.242,0.241,0.364,0.585,0.364,1.035c0,0.064-0.014,0.103-0.039,0.117c-0.024,0.014-0.083,0.021-0.175,0.021h-2.261
	c-0.01,0.037-0.016,0.082-0.021,0.134c-0.004,0.053-0.007,0.111-0.007,0.175c0,0.238,0.029,0.455,0.086,0.649
	c0.058,0.195,0.141,0.361,0.248,0.499c0.107,0.137,0.235,0.244,0.385,0.319c0.148,0.076,0.314,0.113,0.498,0.113
	c0.192,0,0.371-0.042,0.536-0.127c0.166-0.085,0.335-0.224,0.509-0.416L104.555,7.475z M103.421,5.619
	c0.092,0,0.165-0.002,0.221-0.007c0.055-0.005,0.096-0.014,0.123-0.028c0.027-0.014,0.046-0.033,0.056-0.058
	c0.009-0.025,0.013-0.058,0.013-0.1c0-0.211-0.067-0.379-0.202-0.505s-0.319-0.189-0.554-0.189c-0.494,0-0.801,0.295-0.921,0.887
	H103.421L103.421,5.619z"/>
<path fill="#C99E35" d="M106.872,8.114h-0.151V6.932h0.172c0.179,0.646,0.504,0.969,0.976,0.969c0.184,0,0.329-0.045,0.437-0.134
	c0.108-0.089,0.162-0.226,0.162-0.409c0-0.069-0.011-0.127-0.031-0.175s-0.06-0.099-0.116-0.151
	c-0.058-0.053-0.138-0.113-0.241-0.182c-0.103-0.069-0.239-0.156-0.408-0.261c-0.156-0.096-0.292-0.185-0.406-0.268
	c-0.114-0.082-0.211-0.166-0.289-0.25c-0.078-0.085-0.136-0.175-0.175-0.271s-0.059-0.208-0.059-0.337
	c0-0.156,0.026-0.299,0.079-0.43c0.054-0.13,0.125-0.242,0.217-0.333c0.092-0.092,0.199-0.164,0.323-0.217
	c0.123-0.053,0.259-0.079,0.405-0.079c0.124,0,0.252,0.02,0.385,0.059s0.25,0.09,0.351,0.154l0.138-0.144h0.13v0.99h-0.178
	c-0.102-0.279-0.211-0.479-0.331-0.598c-0.118-0.119-0.265-0.178-0.439-0.178c-0.156,0-0.28,0.041-0.374,0.124
	c-0.095,0.082-0.141,0.197-0.141,0.344c0,0.078,0.012,0.146,0.037,0.203s0.065,0.113,0.12,0.168c0.056,0.055,0.125,0.111,0.21,0.168
	c0.085,0.057,0.187,0.122,0.306,0.196c0.197,0.124,0.365,0.233,0.505,0.33c0.14,0.097,0.253,0.191,0.341,0.285
	c0.087,0.094,0.15,0.191,0.192,0.292c0.041,0.102,0.062,0.216,0.062,0.344c0,0.325-0.105,0.581-0.316,0.766
	c-0.21,0.186-0.488,0.278-0.831,0.278c-0.357,0-0.665-0.103-0.921-0.309L106.872,8.114z"/>
<circle fill="#C99E35" cx="10.405" cy="1.432" r="1.432"/>
<g>
	<g>
		<path fill="#FFFFFF" d="M6.809,7.191c0,0.365,0.115,0.704,0.31,0.982C7.835,7.48,8.305,6.535,8.386,5.48
			C7.503,5.552,6.809,6.29,6.809,7.191z"/>
	</g>
</g>
</svg>
